<?xml version="1.0" encoding="utf-8"?>
<!-- Generator: Adobe Illustrator 25.0.1, SVG Export Plug-In . SVG Version: 6.00 Build 0)  -->
<svg version="1.1" id="Laag_1" xmlns="http://www.w3.org/2000/svg" xmlns:xlink="http://www.w3.org/1999/xlink" x="0px" y="0px"
	 viewBox="0 0 250 250" style="enable-background:new 0 0 250 250;" xml:space="preserve">
<style type="text/css">
	.st0{fill:none;}
	.st1{fill:none;stroke:#C9C9C9;stroke-miterlimit:10;}
	.st2{fill:#FEFEFE;}
	.st3{fill:url(#Nieuw_patroon);}
</style>
<pattern  width="250" height="250" patternUnits="userSpaceOnUse" id="Nieuw_patroon" viewBox="194.43 -667.54 250 250" style="overflow:visible;">
	<g>
		<rect x="194.43" y="-667.54" class="st0" width="250" height="250"/>
		<g>
			<g>
				<line class="st1" x1="383.88" y1="-419.01" x2="579.16" y2="-0.21"/>
				<line class="st1" x1="385.92" y1="-420.72" x2="581.21" y2="-1.92"/>
				<line class="st1" x1="387.97" y1="-422.43" x2="583.25" y2="-3.63"/>
				<line class="st1" x1="390.01" y1="-424.14" x2="585.3" y2="-5.34"/>
				<line class="st1" x1="392.06" y1="-425.85" x2="587.34" y2="-7.05"/>
				<line class="st1" x1="394.1" y1="-427.56" x2="589.39" y2="-8.76"/>
				<line class="st1" x1="396.15" y1="-429.27" x2="591.43" y2="-10.47"/>
				<line class="st1" x1="398.19" y1="-430.98" x2="593.48" y2="-12.18"/>
				<line class="st1" x1="400.24" y1="-432.69" x2="595.52" y2="-13.89"/>
				<line class="st1" x1="402.28" y1="-434.4" x2="597.57" y2="-15.6"/>
				<line class="st1" x1="404.33" y1="-436.11" x2="599.61" y2="-17.31"/>
				<line class="st1" x1="406.37" y1="-437.82" x2="601.66" y2="-19.02"/>
				<line class="st1" x1="408.42" y1="-439.53" x2="603.7" y2="-20.73"/>
				<line class="st1" x1="410.46" y1="-441.24" x2="605.75" y2="-22.44"/>
				<line class="st1" x1="412.51" y1="-442.95" x2="607.8" y2="-24.15"/>
				<line class="st1" x1="414.55" y1="-444.66" x2="609.84" y2="-25.86"/>
				<line class="st1" x1="416.6" y1="-446.37" x2="611.89" y2="-27.57"/>
				<line class="st1" x1="418.64" y1="-448.08" x2="613.93" y2="-29.28"/>
				<line class="st1" x1="420.69" y1="-449.79" x2="615.98" y2="-30.99"/>
				<line class="st1" x1="422.73" y1="-451.5" x2="618.02" y2="-32.7"/>
				<line class="st1" x1="424.78" y1="-453.21" x2="620.07" y2="-34.41"/>
				<line class="st1" x1="426.83" y1="-454.92" x2="622.11" y2="-36.12"/>
				<line class="st1" x1="428.87" y1="-456.63" x2="624.16" y2="-37.83"/>
				<line class="st1" x1="430.92" y1="-458.34" x2="626.2" y2="-39.54"/>
				<line class="st1" x1="432.96" y1="-460.05" x2="628.25" y2="-41.25"/>
				<line class="st1" x1="435.01" y1="-461.76" x2="630.29" y2="-42.96"/>
				<line class="st1" x1="437.05" y1="-463.47" x2="632.34" y2="-44.67"/>
				<line class="st1" x1="439.1" y1="-465.18" x2="634.38" y2="-46.38"/>
				<line class="st1" x1="441.14" y1="-466.88" x2="636.43" y2="-48.09"/>
				<line class="st1" x1="443.19" y1="-468.59" x2="638.47" y2="-49.8"/>
			</g>
		</g>
		<g>
			<g>
				<line class="st1" x1="133.88" y1="-419.01" x2="329.16" y2="-0.21"/>
				<line class="st1" x1="135.92" y1="-420.72" x2="331.21" y2="-1.92"/>
				<line class="st1" x1="137.97" y1="-422.43" x2="333.25" y2="-3.63"/>
				<line class="st1" x1="140.01" y1="-424.14" x2="335.3" y2="-5.34"/>
				<line class="st1" x1="142.06" y1="-425.85" x2="337.34" y2="-7.05"/>
				<line class="st1" x1="144.1" y1="-427.56" x2="339.39" y2="-8.76"/>
				<line class="st1" x1="146.15" y1="-429.27" x2="341.43" y2="-10.47"/>
				<line class="st1" x1="148.19" y1="-430.98" x2="343.48" y2="-12.18"/>
				<line class="st1" x1="150.24" y1="-432.69" x2="345.52" y2="-13.89"/>
				<line class="st1" x1="152.28" y1="-434.4" x2="347.57" y2="-15.6"/>
				<line class="st1" x1="154.33" y1="-436.11" x2="349.61" y2="-17.31"/>
				<line class="st1" x1="156.37" y1="-437.82" x2="351.66" y2="-19.02"/>
				<line class="st1" x1="158.42" y1="-439.53" x2="353.7" y2="-20.73"/>
				<line class="st1" x1="160.46" y1="-441.24" x2="355.75" y2="-22.44"/>
				<line class="st1" x1="162.51" y1="-442.95" x2="357.8" y2="-24.15"/>
				<line class="st1" x1="164.55" y1="-444.66" x2="359.84" y2="-25.86"/>
				<line class="st1" x1="166.6" y1="-446.37" x2="361.89" y2="-27.57"/>
				<line class="st1" x1="168.64" y1="-448.08" x2="363.93" y2="-29.28"/>
				<line class="st1" x1="170.69" y1="-449.79" x2="365.98" y2="-30.99"/>
				<line class="st1" x1="172.73" y1="-451.5" x2="368.02" y2="-32.7"/>
				<line class="st1" x1="174.78" y1="-453.21" x2="370.07" y2="-34.41"/>
				<line class="st1" x1="176.83" y1="-454.92" x2="372.11" y2="-36.12"/>
				<line class="st1" x1="178.87" y1="-456.63" x2="374.16" y2="-37.83"/>
				<line class="st1" x1="180.92" y1="-458.34" x2="376.2" y2="-39.54"/>
				<line class="st1" x1="182.96" y1="-460.05" x2="378.25" y2="-41.25"/>
				<line class="st1" x1="185.01" y1="-461.76" x2="380.29" y2="-42.96"/>
				<line class="st1" x1="187.05" y1="-463.47" x2="382.34" y2="-44.67"/>
				<line class="st1" x1="189.1" y1="-465.18" x2="384.38" y2="-46.38"/>
				<line class="st1" x1="191.14" y1="-466.88" x2="386.43" y2="-48.09"/>
				<line class="st1" x1="193.19" y1="-468.59" x2="388.47" y2="-49.8"/>
				<line class="st1" x1="195.23" y1="-470.3" x2="390.52" y2="-51.51"/>
				<line class="st1" x1="197.28" y1="-472.01" x2="392.56" y2="-53.22"/>
				<line class="st1" x1="199.32" y1="-473.72" x2="394.61" y2="-54.93"/>
				<line class="st1" x1="201.37" y1="-475.43" x2="396.65" y2="-56.64"/>
				<line class="st1" x1="203.41" y1="-477.14" x2="398.7" y2="-58.35"/>
				<line class="st1" x1="205.46" y1="-478.85" x2="400.74" y2="-60.06"/>
				<line class="st1" x1="207.5" y1="-480.56" x2="402.79" y2="-61.77"/>
				<line class="st1" x1="209.55" y1="-482.27" x2="404.84" y2="-63.48"/>
				<line class="st1" x1="211.59" y1="-483.98" x2="406.88" y2="-65.19"/>
				<line class="st1" x1="213.64" y1="-485.69" x2="408.93" y2="-66.9"/>
				<line class="st1" x1="215.68" y1="-487.4" x2="410.97" y2="-68.61"/>
				<line class="st1" x1="217.73" y1="-489.11" x2="413.02" y2="-70.32"/>
				<line class="st1" x1="219.77" y1="-490.82" x2="415.06" y2="-72.03"/>
				<line class="st1" x1="221.82" y1="-492.53" x2="417.11" y2="-73.74"/>
				<line class="st1" x1="223.87" y1="-494.24" x2="419.15" y2="-75.45"/>
				<line class="st1" x1="225.91" y1="-495.95" x2="421.2" y2="-77.16"/>
				<line class="st1" x1="227.96" y1="-497.66" x2="423.24" y2="-78.87"/>
				<line class="st1" x1="230" y1="-499.37" x2="425.29" y2="-80.58"/>
				<line class="st1" x1="232.05" y1="-501.08" x2="427.33" y2="-82.29"/>
				<line class="st1" x1="234.09" y1="-502.79" x2="429.38" y2="-84"/>
				<line class="st1" x1="236.14" y1="-504.5" x2="431.42" y2="-85.71"/>
				<line class="st1" x1="238.18" y1="-506.21" x2="433.47" y2="-87.42"/>
				<line class="st1" x1="240.23" y1="-507.92" x2="435.51" y2="-89.13"/>
				<line class="st1" x1="242.27" y1="-509.63" x2="437.56" y2="-90.84"/>
				<line class="st1" x1="244.32" y1="-511.34" x2="439.6" y2="-92.55"/>
				<line class="st1" x1="246.36" y1="-513.05" x2="441.65" y2="-94.26"/>
				<line class="st1" x1="248.41" y1="-514.76" x2="443.69" y2="-95.97"/>
				<line class="st1" x1="250.45" y1="-516.47" x2="445.74" y2="-97.68"/>
				<line class="st1" x1="252.5" y1="-518.18" x2="447.78" y2="-99.39"/>
				<line class="st1" x1="254.54" y1="-519.89" x2="449.83" y2="-101.1"/>
				<line class="st1" x1="256.59" y1="-521.6" x2="451.88" y2="-102.81"/>
				<line class="st1" x1="258.63" y1="-523.31" x2="453.92" y2="-104.52"/>
				<line class="st1" x1="260.68" y1="-525.02" x2="455.97" y2="-106.23"/>
				<line class="st1" x1="262.72" y1="-526.73" x2="458.01" y2="-107.94"/>
				<line class="st1" x1="264.77" y1="-528.44" x2="460.06" y2="-109.65"/>
				<line class="st1" x1="266.81" y1="-530.15" x2="462.1" y2="-111.36"/>
				<line class="st1" x1="268.86" y1="-531.86" x2="464.15" y2="-113.07"/>
				<line class="st1" x1="270.91" y1="-533.57" x2="466.19" y2="-114.78"/>
				<line class="st1" x1="272.95" y1="-535.28" x2="468.24" y2="-116.49"/>
				<line class="st1" x1="275" y1="-536.99" x2="470.28" y2="-118.2"/>
				<line class="st1" x1="277.04" y1="-538.7" x2="472.33" y2="-119.91"/>
				<line class="st1" x1="279.09" y1="-540.41" x2="474.37" y2="-121.62"/>
				<line class="st1" x1="281.13" y1="-542.12" x2="476.42" y2="-123.33"/>
				<line class="st1" x1="283.18" y1="-543.83" x2="478.46" y2="-125.04"/>
				<line class="st1" x1="285.22" y1="-545.54" x2="480.51" y2="-126.75"/>
				<line class="st1" x1="287.27" y1="-547.25" x2="482.55" y2="-128.46"/>
				<line class="st1" x1="289.31" y1="-548.96" x2="484.6" y2="-130.17"/>
				<line class="st1" x1="291.36" y1="-550.67" x2="486.64" y2="-131.88"/>
				<line class="st1" x1="293.4" y1="-552.38" x2="488.69" y2="-133.59"/>
				<line class="st1" x1="295.45" y1="-554.09" x2="490.73" y2="-135.3"/>
				<line class="st1" x1="297.49" y1="-555.8" x2="492.78" y2="-137.01"/>
				<line class="st1" x1="299.54" y1="-557.51" x2="494.83" y2="-138.72"/>
				<line class="st1" x1="301.58" y1="-559.22" x2="496.87" y2="-140.43"/>
				<line class="st1" x1="303.63" y1="-560.93" x2="498.92" y2="-142.14"/>
				<line class="st1" x1="305.67" y1="-562.64" x2="500.96" y2="-143.85"/>
				<line class="st1" x1="307.72" y1="-564.35" x2="503.01" y2="-145.56"/>
				<line class="st1" x1="309.76" y1="-566.06" x2="505.05" y2="-147.27"/>
				<line class="st1" x1="311.81" y1="-567.77" x2="507.1" y2="-148.98"/>
				<line class="st1" x1="313.85" y1="-569.48" x2="509.14" y2="-150.69"/>
				<line class="st1" x1="315.9" y1="-571.19" x2="511.19" y2="-152.4"/>
				<line class="st1" x1="317.95" y1="-572.9" x2="513.23" y2="-154.11"/>
				<line class="st1" x1="319.99" y1="-574.61" x2="515.28" y2="-155.82"/>
				<line class="st1" x1="322.04" y1="-576.32" x2="517.32" y2="-157.53"/>
				<line class="st1" x1="324.08" y1="-578.03" x2="519.37" y2="-159.24"/>
				<line class="st1" x1="326.13" y1="-579.74" x2="521.41" y2="-160.95"/>
				<line class="st1" x1="328.17" y1="-581.45" x2="523.46" y2="-162.66"/>
				<line class="st1" x1="330.22" y1="-583.16" x2="525.5" y2="-164.37"/>
				<line class="st1" x1="332.26" y1="-584.87" x2="527.55" y2="-166.08"/>
				<line class="st1" x1="334.31" y1="-586.58" x2="529.59" y2="-167.79"/>
				<line class="st1" x1="336.35" y1="-588.29" x2="531.64" y2="-169.5"/>
				<line class="st1" x1="338.4" y1="-590" x2="533.68" y2="-171.21"/>
				<line class="st1" x1="340.44" y1="-591.71" x2="535.73" y2="-172.92"/>
				<line class="st1" x1="342.49" y1="-593.42" x2="537.77" y2="-174.63"/>
				<line class="st1" x1="344.53" y1="-595.13" x2="539.82" y2="-176.34"/>
				<line class="st1" x1="346.58" y1="-596.84" x2="541.87" y2="-178.05"/>
				<line class="st1" x1="348.62" y1="-598.55" x2="543.91" y2="-179.76"/>
				<line class="st1" x1="350.67" y1="-600.26" x2="545.96" y2="-181.47"/>
				<line class="st1" x1="352.71" y1="-601.97" x2="548" y2="-183.18"/>
				<line class="st1" x1="354.76" y1="-603.68" x2="550.05" y2="-184.89"/>
				<line class="st1" x1="356.8" y1="-605.39" x2="552.09" y2="-186.6"/>
				<line class="st1" x1="358.85" y1="-607.1" x2="554.14" y2="-188.31"/>
			</g>
		</g>
		<g>
			<g>
				<line class="st1" x1="0.45" y1="-516.47" x2="195.74" y2="-97.68"/>
				<line class="st1" x1="2.5" y1="-518.18" x2="197.78" y2="-99.39"/>
				<line class="st1" x1="4.54" y1="-519.89" x2="199.83" y2="-101.1"/>
				<line class="st1" x1="6.59" y1="-521.6" x2="201.88" y2="-102.81"/>
				<line class="st1" x1="8.63" y1="-523.31" x2="203.92" y2="-104.52"/>
				<line class="st1" x1="10.68" y1="-525.02" x2="205.97" y2="-106.23"/>
				<line class="st1" x1="12.72" y1="-526.73" x2="208.01" y2="-107.94"/>
				<line class="st1" x1="14.77" y1="-528.44" x2="210.06" y2="-109.65"/>
				<line class="st1" x1="16.81" y1="-530.15" x2="212.1" y2="-111.36"/>
				<line class="st1" x1="18.86" y1="-531.86" x2="214.15" y2="-113.07"/>
				<line class="st1" x1="20.91" y1="-533.57" x2="216.19" y2="-114.78"/>
				<line class="st1" x1="22.95" y1="-535.28" x2="218.24" y2="-116.49"/>
				<line class="st1" x1="25" y1="-536.99" x2="220.28" y2="-118.2"/>
				<line class="st1" x1="27.04" y1="-538.7" x2="222.33" y2="-119.91"/>
				<line class="st1" x1="29.09" y1="-540.41" x2="224.37" y2="-121.62"/>
				<line class="st1" x1="31.13" y1="-542.12" x2="226.42" y2="-123.33"/>
				<line class="st1" x1="33.18" y1="-543.83" x2="228.46" y2="-125.04"/>
				<line class="st1" x1="35.22" y1="-545.54" x2="230.51" y2="-126.75"/>
				<line class="st1" x1="37.27" y1="-547.25" x2="232.55" y2="-128.46"/>
				<line class="st1" x1="39.31" y1="-548.96" x2="234.6" y2="-130.17"/>
				<line class="st1" x1="41.36" y1="-550.67" x2="236.64" y2="-131.88"/>
				<line class="st1" x1="43.4" y1="-552.38" x2="238.69" y2="-133.59"/>
				<line class="st1" x1="45.45" y1="-554.09" x2="240.73" y2="-135.3"/>
				<line class="st1" x1="47.49" y1="-555.8" x2="242.78" y2="-137.01"/>
				<line class="st1" x1="49.54" y1="-557.51" x2="244.83" y2="-138.72"/>
				<line class="st1" x1="51.58" y1="-559.22" x2="246.87" y2="-140.43"/>
				<line class="st1" x1="53.63" y1="-560.93" x2="248.92" y2="-142.14"/>
				<line class="st1" x1="55.67" y1="-562.64" x2="250.96" y2="-143.85"/>
				<line class="st1" x1="57.72" y1="-564.35" x2="253.01" y2="-145.56"/>
				<line class="st1" x1="59.76" y1="-566.06" x2="255.05" y2="-147.27"/>
				<line class="st1" x1="61.81" y1="-567.77" x2="257.1" y2="-148.98"/>
				<line class="st1" x1="63.85" y1="-569.48" x2="259.14" y2="-150.69"/>
				<line class="st1" x1="65.9" y1="-571.19" x2="261.19" y2="-152.4"/>
				<line class="st1" x1="67.95" y1="-572.9" x2="263.23" y2="-154.11"/>
				<line class="st1" x1="69.99" y1="-574.61" x2="265.28" y2="-155.82"/>
				<line class="st1" x1="72.04" y1="-576.32" x2="267.32" y2="-157.53"/>
				<line class="st1" x1="74.08" y1="-578.03" x2="269.37" y2="-159.24"/>
				<line class="st1" x1="76.13" y1="-579.74" x2="271.41" y2="-160.95"/>
				<line class="st1" x1="78.17" y1="-581.45" x2="273.46" y2="-162.66"/>
				<line class="st1" x1="80.22" y1="-583.16" x2="275.5" y2="-164.37"/>
				<line class="st1" x1="82.26" y1="-584.87" x2="277.55" y2="-166.08"/>
				<line class="st1" x1="84.31" y1="-586.58" x2="279.59" y2="-167.79"/>
				<line class="st1" x1="86.35" y1="-588.29" x2="281.64" y2="-169.5"/>
				<line class="st1" x1="88.4" y1="-590" x2="283.68" y2="-171.21"/>
				<line class="st1" x1="90.44" y1="-591.71" x2="285.73" y2="-172.92"/>
				<line class="st1" x1="92.49" y1="-593.42" x2="287.77" y2="-174.63"/>
				<line class="st1" x1="94.53" y1="-595.13" x2="289.82" y2="-176.34"/>
				<line class="st1" x1="96.58" y1="-596.84" x2="291.87" y2="-178.05"/>
				<line class="st1" x1="98.62" y1="-598.55" x2="293.91" y2="-179.76"/>
				<line class="st1" x1="100.67" y1="-600.26" x2="295.96" y2="-181.47"/>
				<line class="st1" x1="102.71" y1="-601.97" x2="298" y2="-183.18"/>
				<line class="st1" x1="104.76" y1="-603.68" x2="300.05" y2="-184.89"/>
				<line class="st1" x1="106.8" y1="-605.39" x2="302.09" y2="-186.6"/>
				<line class="st1" x1="108.85" y1="-607.1" x2="304.14" y2="-188.31"/>
			</g>
		</g>
		<g>
			<g>
				<line class="st1" x1="340.93" y1="-633.1" x2="536.21" y2="-214.3"/>
				<line class="st1" x1="342.97" y1="-634.81" x2="538.26" y2="-216.01"/>
				<line class="st1" x1="345.02" y1="-636.52" x2="540.3" y2="-217.72"/>
				<line class="st1" x1="347.06" y1="-638.23" x2="542.35" y2="-219.43"/>
				<line class="st1" x1="349.11" y1="-639.94" x2="544.39" y2="-221.14"/>
				<line class="st1" x1="351.15" y1="-641.65" x2="546.44" y2="-222.85"/>
				<line class="st1" x1="353.2" y1="-643.36" x2="548.48" y2="-224.56"/>
				<line class="st1" x1="355.24" y1="-645.07" x2="550.53" y2="-226.27"/>
				<line class="st1" x1="357.29" y1="-646.78" x2="552.57" y2="-227.98"/>
				<line class="st1" x1="359.33" y1="-648.49" x2="554.62" y2="-229.69"/>
				<line class="st1" x1="361.38" y1="-650.2" x2="556.66" y2="-231.4"/>
				<line class="st1" x1="363.42" y1="-651.91" x2="558.71" y2="-233.11"/>
				<line class="st1" x1="365.47" y1="-653.62" x2="560.76" y2="-234.82"/>
				<line class="st1" x1="367.51" y1="-655.33" x2="562.8" y2="-236.53"/>
				<line class="st1" x1="369.56" y1="-657.04" x2="564.85" y2="-238.24"/>
				<line class="st1" x1="371.6" y1="-658.75" x2="566.89" y2="-239.95"/>
				<line class="st1" x1="373.65" y1="-660.46" x2="568.94" y2="-241.66"/>
				<line class="st1" x1="375.69" y1="-662.17" x2="570.98" y2="-243.37"/>
				<line class="st1" x1="377.74" y1="-663.88" x2="573.03" y2="-245.08"/>
				<line class="st1" x1="379.79" y1="-665.59" x2="575.07" y2="-246.79"/>
				<line class="st1" x1="381.83" y1="-667.3" x2="577.12" y2="-248.5"/>
				<line class="st1" x1="383.88" y1="-669.01" x2="579.16" y2="-250.21"/>
				<line class="st1" x1="385.92" y1="-670.72" x2="581.21" y2="-251.92"/>
				<line class="st1" x1="387.97" y1="-672.43" x2="583.25" y2="-253.63"/>
				<line class="st1" x1="390.01" y1="-674.14" x2="585.3" y2="-255.34"/>
				<line class="st1" x1="392.06" y1="-675.85" x2="587.34" y2="-257.05"/>
				<line class="st1" x1="394.1" y1="-677.56" x2="589.39" y2="-258.76"/>
				<line class="st1" x1="396.15" y1="-679.27" x2="591.43" y2="-260.47"/>
				<line class="st1" x1="398.19" y1="-680.98" x2="593.48" y2="-262.18"/>
				<line class="st1" x1="400.24" y1="-682.69" x2="595.52" y2="-263.89"/>
				<line class="st1" x1="402.28" y1="-684.4" x2="597.57" y2="-265.6"/>
				<line class="st1" x1="404.33" y1="-686.11" x2="599.61" y2="-267.31"/>
				<line class="st1" x1="406.37" y1="-687.82" x2="601.66" y2="-269.02"/>
				<line class="st1" x1="408.42" y1="-689.53" x2="603.7" y2="-270.73"/>
				<line class="st1" x1="410.46" y1="-691.24" x2="605.75" y2="-272.44"/>
				<line class="st1" x1="412.51" y1="-692.95" x2="607.8" y2="-274.15"/>
				<line class="st1" x1="414.55" y1="-694.66" x2="609.84" y2="-275.86"/>
				<line class="st1" x1="416.6" y1="-696.37" x2="611.89" y2="-277.57"/>
				<line class="st1" x1="418.64" y1="-698.08" x2="613.93" y2="-279.28"/>
				<line class="st1" x1="420.69" y1="-699.79" x2="615.98" y2="-280.99"/>
				<line class="st1" x1="422.73" y1="-701.5" x2="618.02" y2="-282.7"/>
				<line class="st1" x1="424.78" y1="-703.21" x2="620.07" y2="-284.41"/>
				<line class="st1" x1="426.83" y1="-704.92" x2="622.11" y2="-286.12"/>
				<line class="st1" x1="428.87" y1="-706.63" x2="624.16" y2="-287.83"/>
				<line class="st1" x1="430.92" y1="-708.34" x2="626.2" y2="-289.54"/>
				<line class="st1" x1="432.96" y1="-710.05" x2="628.25" y2="-291.25"/>
				<line class="st1" x1="435.01" y1="-711.76" x2="630.29" y2="-292.96"/>
				<line class="st1" x1="437.05" y1="-713.47" x2="632.34" y2="-294.67"/>
				<line class="st1" x1="439.1" y1="-715.17" x2="634.38" y2="-296.38"/>
				<line class="st1" x1="441.14" y1="-716.89" x2="636.43" y2="-298.09"/>
				<line class="st1" x1="443.19" y1="-718.59" x2="638.47" y2="-299.8"/>
			</g>
		</g>
		<g>
			<rect x="194.43" y="-667.54" class="st2" width="250" height="250"/>
			<g>
				<line class="st1" x1="90.93" y1="-633.1" x2="286.21" y2="-214.3"/>
				<line class="st1" x1="92.97" y1="-634.81" x2="288.26" y2="-216.01"/>
				<line class="st1" x1="95.02" y1="-636.52" x2="290.3" y2="-217.72"/>
				<line class="st1" x1="97.06" y1="-638.23" x2="292.35" y2="-219.43"/>
				<line class="st1" x1="99.11" y1="-639.94" x2="294.39" y2="-221.14"/>
				<line class="st1" x1="101.15" y1="-641.65" x2="296.44" y2="-222.85"/>
				<line class="st1" x1="103.2" y1="-643.36" x2="298.48" y2="-224.56"/>
				<line class="st1" x1="105.24" y1="-645.07" x2="300.53" y2="-226.27"/>
				<line class="st1" x1="107.29" y1="-646.78" x2="302.57" y2="-227.98"/>
				<line class="st1" x1="109.33" y1="-648.49" x2="304.62" y2="-229.69"/>
				<line class="st1" x1="111.38" y1="-650.2" x2="306.66" y2="-231.4"/>
				<line class="st1" x1="113.42" y1="-651.91" x2="308.71" y2="-233.11"/>
				<line class="st1" x1="115.47" y1="-653.62" x2="310.76" y2="-234.82"/>
				<line class="st1" x1="117.51" y1="-655.33" x2="312.8" y2="-236.53"/>
				<line class="st1" x1="119.56" y1="-657.04" x2="314.85" y2="-238.24"/>
				<line class="st1" x1="121.6" y1="-658.75" x2="316.89" y2="-239.95"/>
				<line class="st1" x1="123.65" y1="-660.46" x2="318.94" y2="-241.66"/>
				<line class="st1" x1="125.69" y1="-662.17" x2="320.98" y2="-243.37"/>
				<line class="st1" x1="127.74" y1="-663.88" x2="323.03" y2="-245.08"/>
				<line class="st1" x1="129.79" y1="-665.59" x2="325.07" y2="-246.79"/>
				<line class="st1" x1="131.83" y1="-667.3" x2="327.12" y2="-248.5"/>
				<line class="st1" x1="133.88" y1="-669.01" x2="329.16" y2="-250.21"/>
				<line class="st1" x1="135.92" y1="-670.72" x2="331.21" y2="-251.92"/>
				<line class="st1" x1="137.97" y1="-672.43" x2="333.25" y2="-253.63"/>
				<line class="st1" x1="140.01" y1="-674.14" x2="335.3" y2="-255.34"/>
				<line class="st1" x1="142.06" y1="-675.85" x2="337.34" y2="-257.05"/>
				<line class="st1" x1="144.1" y1="-677.56" x2="339.39" y2="-258.76"/>
				<line class="st1" x1="146.15" y1="-679.27" x2="341.43" y2="-260.47"/>
				<line class="st1" x1="148.19" y1="-680.98" x2="343.48" y2="-262.18"/>
				<line class="st1" x1="150.24" y1="-682.69" x2="345.52" y2="-263.89"/>
				<line class="st1" x1="152.28" y1="-684.4" x2="347.57" y2="-265.6"/>
				<line class="st1" x1="154.33" y1="-686.11" x2="349.61" y2="-267.31"/>
				<line class="st1" x1="156.37" y1="-687.82" x2="351.66" y2="-269.02"/>
				<line class="st1" x1="158.42" y1="-689.53" x2="353.7" y2="-270.73"/>
				<line class="st1" x1="160.46" y1="-691.24" x2="355.75" y2="-272.44"/>
				<line class="st1" x1="162.51" y1="-692.95" x2="357.8" y2="-274.15"/>
				<line class="st1" x1="164.55" y1="-694.66" x2="359.84" y2="-275.86"/>
				<line class="st1" x1="166.6" y1="-696.37" x2="361.89" y2="-277.57"/>
				<line class="st1" x1="168.64" y1="-698.08" x2="363.93" y2="-279.28"/>
				<line class="st1" x1="170.69" y1="-699.79" x2="365.98" y2="-280.99"/>
				<line class="st1" x1="172.73" y1="-701.5" x2="368.02" y2="-282.7"/>
				<line class="st1" x1="174.78" y1="-703.21" x2="370.07" y2="-284.41"/>
				<line class="st1" x1="176.83" y1="-704.92" x2="372.11" y2="-286.12"/>
				<line class="st1" x1="178.87" y1="-706.63" x2="374.16" y2="-287.83"/>
				<line class="st1" x1="180.92" y1="-708.34" x2="376.2" y2="-289.54"/>
				<line class="st1" x1="182.96" y1="-710.05" x2="378.25" y2="-291.25"/>
				<line class="st1" x1="185.01" y1="-711.76" x2="380.29" y2="-292.96"/>
				<line class="st1" x1="187.05" y1="-713.47" x2="382.34" y2="-294.67"/>
				<line class="st1" x1="189.1" y1="-715.17" x2="384.38" y2="-296.38"/>
				<line class="st1" x1="191.14" y1="-716.89" x2="386.43" y2="-298.09"/>
				<line class="st1" x1="193.19" y1="-718.59" x2="388.47" y2="-299.8"/>
				<line class="st1" x1="195.23" y1="-720.3" x2="390.52" y2="-301.51"/>
				<line class="st1" x1="197.28" y1="-722.01" x2="392.56" y2="-303.22"/>
				<line class="st1" x1="199.32" y1="-723.72" x2="394.61" y2="-304.93"/>
				<line class="st1" x1="201.37" y1="-725.43" x2="396.65" y2="-306.64"/>
				<line class="st1" x1="203.41" y1="-727.14" x2="398.7" y2="-308.35"/>
				<line class="st1" x1="205.46" y1="-728.85" x2="400.74" y2="-310.06"/>
				<line class="st1" x1="207.5" y1="-730.56" x2="402.79" y2="-311.77"/>
				<line class="st1" x1="209.55" y1="-732.27" x2="404.84" y2="-313.48"/>
				<line class="st1" x1="211.59" y1="-733.98" x2="406.88" y2="-315.19"/>
				<line class="st1" x1="213.64" y1="-735.69" x2="408.93" y2="-316.9"/>
				<line class="st1" x1="215.68" y1="-737.4" x2="410.97" y2="-318.61"/>
				<line class="st1" x1="217.73" y1="-739.11" x2="413.02" y2="-320.32"/>
				<line class="st1" x1="219.77" y1="-740.82" x2="415.06" y2="-322.03"/>
				<line class="st1" x1="221.82" y1="-742.53" x2="417.11" y2="-323.74"/>
				<line class="st1" x1="223.87" y1="-744.24" x2="419.15" y2="-325.45"/>
				<line class="st1" x1="225.91" y1="-745.95" x2="421.2" y2="-327.16"/>
				<line class="st1" x1="227.96" y1="-747.66" x2="423.24" y2="-328.87"/>
				<line class="st1" x1="230" y1="-749.37" x2="425.29" y2="-330.58"/>
				<line class="st1" x1="232.05" y1="-751.08" x2="427.33" y2="-332.29"/>
				<line class="st1" x1="234.09" y1="-752.79" x2="429.38" y2="-334"/>
				<line class="st1" x1="236.14" y1="-754.5" x2="431.42" y2="-335.71"/>
				<line class="st1" x1="238.18" y1="-756.21" x2="433.47" y2="-337.42"/>
				<line class="st1" x1="240.23" y1="-757.92" x2="435.51" y2="-339.13"/>
				<line class="st1" x1="242.27" y1="-759.63" x2="437.56" y2="-340.84"/>
				<line class="st1" x1="244.32" y1="-761.34" x2="439.6" y2="-342.55"/>
				<line class="st1" x1="246.36" y1="-763.05" x2="441.65" y2="-344.26"/>
				<line class="st1" x1="248.41" y1="-764.76" x2="443.69" y2="-345.97"/>
				<line class="st1" x1="250.45" y1="-766.47" x2="445.74" y2="-347.68"/>
				<line class="st1" x1="252.5" y1="-768.18" x2="447.78" y2="-349.39"/>
				<line class="st1" x1="254.54" y1="-769.89" x2="449.83" y2="-351.1"/>
				<line class="st1" x1="256.59" y1="-771.6" x2="451.88" y2="-352.81"/>
				<line class="st1" x1="258.63" y1="-773.31" x2="453.92" y2="-354.52"/>
				<line class="st1" x1="260.68" y1="-775.02" x2="455.97" y2="-356.23"/>
				<line class="st1" x1="262.72" y1="-776.73" x2="458.01" y2="-357.94"/>
				<line class="st1" x1="264.77" y1="-778.44" x2="460.06" y2="-359.65"/>
				<line class="st1" x1="266.81" y1="-780.15" x2="462.1" y2="-361.36"/>
				<line class="st1" x1="268.86" y1="-781.86" x2="464.15" y2="-363.07"/>
				<line class="st1" x1="270.91" y1="-783.57" x2="466.19" y2="-364.78"/>
				<line class="st1" x1="272.95" y1="-785.28" x2="468.24" y2="-366.49"/>
				<line class="st1" x1="275" y1="-786.99" x2="470.28" y2="-368.2"/>
				<line class="st1" x1="277.04" y1="-788.7" x2="472.33" y2="-369.91"/>
				<line class="st1" x1="279.09" y1="-790.41" x2="474.37" y2="-371.62"/>
				<line class="st1" x1="281.13" y1="-792.12" x2="476.42" y2="-373.33"/>
				<line class="st1" x1="283.18" y1="-793.83" x2="478.46" y2="-375.04"/>
				<line class="st1" x1="285.22" y1="-795.54" x2="480.51" y2="-376.75"/>
				<line class="st1" x1="287.27" y1="-797.25" x2="482.55" y2="-378.46"/>
				<line class="st1" x1="289.31" y1="-798.96" x2="484.6" y2="-380.17"/>
				<line class="st1" x1="291.36" y1="-800.67" x2="486.64" y2="-381.88"/>
				<line class="st1" x1="293.4" y1="-802.38" x2="488.69" y2="-383.59"/>
				<line class="st1" x1="295.45" y1="-804.09" x2="490.73" y2="-385.3"/>
				<line class="st1" x1="297.49" y1="-805.8" x2="492.78" y2="-387.01"/>
				<line class="st1" x1="299.54" y1="-807.51" x2="494.83" y2="-388.72"/>
				<line class="st1" x1="301.58" y1="-809.22" x2="496.87" y2="-390.43"/>
				<line class="st1" x1="303.63" y1="-810.93" x2="498.92" y2="-392.14"/>
				<line class="st1" x1="305.67" y1="-812.64" x2="500.96" y2="-393.85"/>
				<line class="st1" x1="307.72" y1="-814.35" x2="503.01" y2="-395.56"/>
				<line class="st1" x1="309.76" y1="-816.06" x2="505.05" y2="-397.27"/>
				<line class="st1" x1="311.81" y1="-817.77" x2="507.1" y2="-398.98"/>
				<line class="st1" x1="313.85" y1="-819.48" x2="509.14" y2="-400.69"/>
				<line class="st1" x1="315.9" y1="-821.19" x2="511.19" y2="-402.4"/>
				<line class="st1" x1="317.95" y1="-822.9" x2="513.23" y2="-404.11"/>
				<line class="st1" x1="319.99" y1="-824.61" x2="515.28" y2="-405.82"/>
				<line class="st1" x1="322.04" y1="-826.32" x2="517.32" y2="-407.53"/>
				<line class="st1" x1="324.08" y1="-828.03" x2="519.37" y2="-409.24"/>
				<line class="st1" x1="326.13" y1="-829.74" x2="521.41" y2="-410.95"/>
				<line class="st1" x1="328.17" y1="-831.45" x2="523.46" y2="-412.66"/>
				<line class="st1" x1="330.22" y1="-833.16" x2="525.5" y2="-414.37"/>
				<line class="st1" x1="332.26" y1="-834.87" x2="527.55" y2="-416.08"/>
				<line class="st1" x1="334.31" y1="-836.58" x2="529.59" y2="-417.79"/>
				<line class="st1" x1="336.35" y1="-838.29" x2="531.64" y2="-419.5"/>
				<line class="st1" x1="338.4" y1="-840" x2="533.68" y2="-421.21"/>
				<line class="st1" x1="340.44" y1="-841.71" x2="535.73" y2="-422.92"/>
				<line class="st1" x1="342.49" y1="-843.42" x2="537.77" y2="-424.63"/>
				<line class="st1" x1="344.53" y1="-845.13" x2="539.82" y2="-426.34"/>
				<line class="st1" x1="346.58" y1="-846.84" x2="541.87" y2="-428.05"/>
				<line class="st1" x1="348.62" y1="-848.55" x2="543.91" y2="-429.76"/>
				<line class="st1" x1="350.67" y1="-850.26" x2="545.96" y2="-431.47"/>
				<line class="st1" x1="352.71" y1="-851.97" x2="548" y2="-433.18"/>
				<line class="st1" x1="354.76" y1="-853.68" x2="550.05" y2="-434.89"/>
				<line class="st1" x1="356.8" y1="-855.39" x2="552.09" y2="-436.6"/>
				<line class="st1" x1="358.85" y1="-857.1" x2="554.14" y2="-438.31"/>
			</g>
		</g>
		<g>
			<g>
				<line class="st1" x1="0.45" y1="-766.47" x2="195.74" y2="-347.68"/>
				<line class="st1" x1="2.5" y1="-768.18" x2="197.78" y2="-349.39"/>
				<line class="st1" x1="4.54" y1="-769.89" x2="199.83" y2="-351.1"/>
				<line class="st1" x1="6.59" y1="-771.6" x2="201.88" y2="-352.81"/>
				<line class="st1" x1="8.63" y1="-773.31" x2="203.92" y2="-354.52"/>
				<line class="st1" x1="10.68" y1="-775.02" x2="205.97" y2="-356.23"/>
				<line class="st1" x1="12.72" y1="-776.73" x2="208.01" y2="-357.94"/>
				<line class="st1" x1="14.77" y1="-778.44" x2="210.06" y2="-359.65"/>
				<line class="st1" x1="16.81" y1="-780.15" x2="212.1" y2="-361.36"/>
				<line class="st1" x1="18.86" y1="-781.86" x2="214.15" y2="-363.07"/>
				<line class="st1" x1="20.91" y1="-783.57" x2="216.19" y2="-364.78"/>
				<line class="st1" x1="22.95" y1="-785.28" x2="218.24" y2="-366.49"/>
				<line class="st1" x1="25" y1="-786.99" x2="220.28" y2="-368.2"/>
				<line class="st1" x1="27.04" y1="-788.7" x2="222.33" y2="-369.91"/>
				<line class="st1" x1="29.09" y1="-790.41" x2="224.37" y2="-371.62"/>
				<line class="st1" x1="31.13" y1="-792.12" x2="226.42" y2="-373.33"/>
				<line class="st1" x1="33.18" y1="-793.83" x2="228.46" y2="-375.04"/>
				<line class="st1" x1="35.22" y1="-795.54" x2="230.51" y2="-376.75"/>
				<line class="st1" x1="37.27" y1="-797.25" x2="232.55" y2="-378.46"/>
				<line class="st1" x1="39.31" y1="-798.96" x2="234.6" y2="-380.17"/>
				<line class="st1" x1="41.36" y1="-800.67" x2="236.64" y2="-381.88"/>
				<line class="st1" x1="43.4" y1="-802.38" x2="238.69" y2="-383.59"/>
				<line class="st1" x1="45.45" y1="-804.09" x2="240.73" y2="-385.3"/>
				<line class="st1" x1="47.49" y1="-805.8" x2="242.78" y2="-387.01"/>
				<line class="st1" x1="49.54" y1="-807.51" x2="244.83" y2="-388.72"/>
				<line class="st1" x1="51.58" y1="-809.22" x2="246.87" y2="-390.43"/>
				<line class="st1" x1="53.63" y1="-810.93" x2="248.92" y2="-392.14"/>
				<line class="st1" x1="55.67" y1="-812.64" x2="250.96" y2="-393.85"/>
				<line class="st1" x1="57.72" y1="-814.35" x2="253.01" y2="-395.56"/>
				<line class="st1" x1="59.76" y1="-816.06" x2="255.05" y2="-397.27"/>
				<line class="st1" x1="61.81" y1="-817.77" x2="257.1" y2="-398.98"/>
				<line class="st1" x1="63.85" y1="-819.48" x2="259.14" y2="-400.69"/>
				<line class="st1" x1="65.9" y1="-821.19" x2="261.19" y2="-402.4"/>
				<line class="st1" x1="67.95" y1="-822.9" x2="263.23" y2="-404.11"/>
				<line class="st1" x1="69.99" y1="-824.61" x2="265.28" y2="-405.82"/>
				<line class="st1" x1="72.04" y1="-826.32" x2="267.32" y2="-407.53"/>
				<line class="st1" x1="74.08" y1="-828.03" x2="269.37" y2="-409.24"/>
				<line class="st1" x1="76.13" y1="-829.74" x2="271.41" y2="-410.95"/>
				<line class="st1" x1="78.17" y1="-831.45" x2="273.46" y2="-412.66"/>
				<line class="st1" x1="80.22" y1="-833.16" x2="275.5" y2="-414.37"/>
				<line class="st1" x1="82.26" y1="-834.87" x2="277.55" y2="-416.08"/>
				<line class="st1" x1="84.31" y1="-836.58" x2="279.59" y2="-417.79"/>
				<line class="st1" x1="86.35" y1="-838.29" x2="281.64" y2="-419.5"/>
				<line class="st1" x1="88.4" y1="-840" x2="283.68" y2="-421.21"/>
				<line class="st1" x1="90.44" y1="-841.71" x2="285.73" y2="-422.92"/>
				<line class="st1" x1="92.49" y1="-843.42" x2="287.77" y2="-424.63"/>
				<line class="st1" x1="94.53" y1="-845.13" x2="289.82" y2="-426.34"/>
				<line class="st1" x1="96.58" y1="-846.84" x2="291.87" y2="-428.05"/>
				<line class="st1" x1="98.62" y1="-848.55" x2="293.91" y2="-429.76"/>
				<line class="st1" x1="100.67" y1="-850.26" x2="295.96" y2="-431.47"/>
				<line class="st1" x1="102.71" y1="-851.97" x2="298" y2="-433.18"/>
				<line class="st1" x1="104.76" y1="-853.68" x2="300.05" y2="-434.89"/>
				<line class="st1" x1="106.8" y1="-855.39" x2="302.09" y2="-436.6"/>
				<line class="st1" x1="108.85" y1="-857.1" x2="304.14" y2="-438.31"/>
			</g>
		</g>
		<g>
			<g>
				<line class="st1" x1="340.93" y1="-883.1" x2="536.21" y2="-464.3"/>
				<line class="st1" x1="342.97" y1="-884.81" x2="538.26" y2="-466.01"/>
				<line class="st1" x1="345.02" y1="-886.52" x2="540.3" y2="-467.72"/>
				<line class="st1" x1="347.06" y1="-888.23" x2="542.35" y2="-469.43"/>
				<line class="st1" x1="349.11" y1="-889.94" x2="544.39" y2="-471.14"/>
				<line class="st1" x1="351.15" y1="-891.65" x2="546.44" y2="-472.85"/>
				<line class="st1" x1="353.2" y1="-893.36" x2="548.48" y2="-474.56"/>
				<line class="st1" x1="355.24" y1="-895.07" x2="550.53" y2="-476.27"/>
				<line class="st1" x1="357.29" y1="-896.78" x2="552.57" y2="-477.98"/>
				<line class="st1" x1="359.33" y1="-898.49" x2="554.62" y2="-479.69"/>
				<line class="st1" x1="361.38" y1="-900.2" x2="556.66" y2="-481.4"/>
				<line class="st1" x1="363.42" y1="-901.91" x2="558.71" y2="-483.11"/>
				<line class="st1" x1="365.47" y1="-903.62" x2="560.76" y2="-484.82"/>
				<line class="st1" x1="367.51" y1="-905.33" x2="562.8" y2="-486.53"/>
				<line class="st1" x1="369.56" y1="-907.04" x2="564.85" y2="-488.24"/>
				<line class="st1" x1="371.6" y1="-908.75" x2="566.89" y2="-489.95"/>
				<line class="st1" x1="373.65" y1="-910.46" x2="568.94" y2="-491.66"/>
				<line class="st1" x1="375.69" y1="-912.17" x2="570.98" y2="-493.37"/>
				<line class="st1" x1="377.74" y1="-913.88" x2="573.03" y2="-495.08"/>
				<line class="st1" x1="379.79" y1="-915.59" x2="575.07" y2="-496.79"/>
				<line class="st1" x1="381.83" y1="-917.3" x2="577.12" y2="-498.5"/>
				<line class="st1" x1="383.88" y1="-919.01" x2="579.16" y2="-500.21"/>
				<line class="st1" x1="385.92" y1="-920.72" x2="581.21" y2="-501.92"/>
				<line class="st1" x1="387.97" y1="-922.43" x2="583.25" y2="-503.63"/>
				<line class="st1" x1="390.01" y1="-924.14" x2="585.3" y2="-505.34"/>
				<line class="st1" x1="392.06" y1="-925.85" x2="587.34" y2="-507.05"/>
				<line class="st1" x1="394.1" y1="-927.56" x2="589.39" y2="-508.76"/>
				<line class="st1" x1="396.15" y1="-929.27" x2="591.43" y2="-510.47"/>
				<line class="st1" x1="398.19" y1="-930.98" x2="593.48" y2="-512.18"/>
				<line class="st1" x1="400.24" y1="-932.69" x2="595.52" y2="-513.89"/>
				<line class="st1" x1="402.28" y1="-934.4" x2="597.57" y2="-515.6"/>
				<line class="st1" x1="404.33" y1="-936.11" x2="599.61" y2="-517.31"/>
				<line class="st1" x1="406.37" y1="-937.82" x2="601.66" y2="-519.02"/>
				<line class="st1" x1="408.42" y1="-939.53" x2="603.7" y2="-520.73"/>
				<line class="st1" x1="410.46" y1="-941.24" x2="605.75" y2="-522.44"/>
				<line class="st1" x1="412.51" y1="-942.95" x2="607.8" y2="-524.15"/>
				<line class="st1" x1="414.55" y1="-944.66" x2="609.84" y2="-525.86"/>
				<line class="st1" x1="416.6" y1="-946.37" x2="611.89" y2="-527.57"/>
				<line class="st1" x1="418.64" y1="-948.08" x2="613.93" y2="-529.28"/>
				<line class="st1" x1="420.69" y1="-949.79" x2="615.98" y2="-530.99"/>
				<line class="st1" x1="422.73" y1="-951.5" x2="618.02" y2="-532.7"/>
				<line class="st1" x1="424.78" y1="-953.21" x2="620.07" y2="-534.41"/>
				<line class="st1" x1="426.83" y1="-954.92" x2="622.11" y2="-536.12"/>
				<line class="st1" x1="428.87" y1="-956.63" x2="624.16" y2="-537.83"/>
				<line class="st1" x1="430.92" y1="-958.34" x2="626.2" y2="-539.54"/>
				<line class="st1" x1="432.96" y1="-960.05" x2="628.25" y2="-541.25"/>
				<line class="st1" x1="435.01" y1="-961.76" x2="630.29" y2="-542.96"/>
				<line class="st1" x1="437.05" y1="-963.47" x2="632.34" y2="-544.67"/>
				<line class="st1" x1="439.1" y1="-965.17" x2="634.38" y2="-546.38"/>
				<line class="st1" x1="441.14" y1="-966.89" x2="636.43" y2="-548.09"/>
				<line class="st1" x1="443.19" y1="-968.59" x2="638.47" y2="-549.8"/>
			</g>
		</g>
		<g>
			<g>
				<line class="st1" x1="90.93" y1="-883.1" x2="286.21" y2="-464.3"/>
				<line class="st1" x1="92.97" y1="-884.81" x2="288.26" y2="-466.01"/>
				<line class="st1" x1="95.02" y1="-886.52" x2="290.3" y2="-467.72"/>
				<line class="st1" x1="97.06" y1="-888.23" x2="292.35" y2="-469.43"/>
				<line class="st1" x1="99.11" y1="-889.94" x2="294.39" y2="-471.14"/>
				<line class="st1" x1="101.15" y1="-891.65" x2="296.44" y2="-472.85"/>
				<line class="st1" x1="103.2" y1="-893.36" x2="298.48" y2="-474.56"/>
				<line class="st1" x1="105.24" y1="-895.07" x2="300.53" y2="-476.27"/>
				<line class="st1" x1="107.29" y1="-896.78" x2="302.57" y2="-477.98"/>
				<line class="st1" x1="109.33" y1="-898.49" x2="304.62" y2="-479.69"/>
				<line class="st1" x1="111.38" y1="-900.2" x2="306.66" y2="-481.4"/>
				<line class="st1" x1="113.42" y1="-901.91" x2="308.71" y2="-483.11"/>
				<line class="st1" x1="115.47" y1="-903.62" x2="310.76" y2="-484.82"/>
				<line class="st1" x1="117.51" y1="-905.33" x2="312.8" y2="-486.53"/>
				<line class="st1" x1="119.56" y1="-907.04" x2="314.85" y2="-488.24"/>
				<line class="st1" x1="121.6" y1="-908.75" x2="316.89" y2="-489.95"/>
				<line class="st1" x1="123.65" y1="-910.46" x2="318.94" y2="-491.66"/>
				<line class="st1" x1="125.69" y1="-912.17" x2="320.98" y2="-493.37"/>
				<line class="st1" x1="127.74" y1="-913.88" x2="323.03" y2="-495.08"/>
				<line class="st1" x1="129.79" y1="-915.59" x2="325.07" y2="-496.79"/>
				<line class="st1" x1="131.83" y1="-917.3" x2="327.12" y2="-498.5"/>
				<line class="st1" x1="133.88" y1="-919.01" x2="329.16" y2="-500.21"/>
				<line class="st1" x1="135.92" y1="-920.72" x2="331.21" y2="-501.92"/>
				<line class="st1" x1="137.97" y1="-922.43" x2="333.25" y2="-503.63"/>
				<line class="st1" x1="140.01" y1="-924.14" x2="335.3" y2="-505.34"/>
				<line class="st1" x1="142.06" y1="-925.85" x2="337.34" y2="-507.05"/>
				<line class="st1" x1="144.1" y1="-927.56" x2="339.39" y2="-508.76"/>
				<line class="st1" x1="146.15" y1="-929.27" x2="341.43" y2="-510.47"/>
				<line class="st1" x1="148.19" y1="-930.98" x2="343.48" y2="-512.18"/>
				<line class="st1" x1="150.24" y1="-932.69" x2="345.52" y2="-513.89"/>
				<line class="st1" x1="152.28" y1="-934.4" x2="347.57" y2="-515.6"/>
				<line class="st1" x1="154.33" y1="-936.11" x2="349.61" y2="-517.31"/>
				<line class="st1" x1="156.37" y1="-937.82" x2="351.66" y2="-519.02"/>
				<line class="st1" x1="158.42" y1="-939.53" x2="353.7" y2="-520.73"/>
				<line class="st1" x1="160.46" y1="-941.24" x2="355.75" y2="-522.44"/>
				<line class="st1" x1="162.51" y1="-942.95" x2="357.8" y2="-524.15"/>
				<line class="st1" x1="164.55" y1="-944.66" x2="359.84" y2="-525.86"/>
				<line class="st1" x1="166.6" y1="-946.37" x2="361.89" y2="-527.57"/>
				<line class="st1" x1="168.64" y1="-948.08" x2="363.93" y2="-529.28"/>
				<line class="st1" x1="170.69" y1="-949.79" x2="365.98" y2="-530.99"/>
				<line class="st1" x1="172.73" y1="-951.5" x2="368.02" y2="-532.7"/>
				<line class="st1" x1="174.78" y1="-953.21" x2="370.07" y2="-534.41"/>
				<line class="st1" x1="176.83" y1="-954.92" x2="372.11" y2="-536.12"/>
				<line class="st1" x1="178.87" y1="-956.63" x2="374.16" y2="-537.83"/>
				<line class="st1" x1="180.92" y1="-958.34" x2="376.2" y2="-539.54"/>
				<line class="st1" x1="182.96" y1="-960.05" x2="378.25" y2="-541.25"/>
				<line class="st1" x1="185.01" y1="-961.76" x2="380.29" y2="-542.96"/>
				<line class="st1" x1="187.05" y1="-963.47" x2="382.34" y2="-544.67"/>
				<line class="st1" x1="189.1" y1="-965.17" x2="384.38" y2="-546.38"/>
				<line class="st1" x1="191.14" y1="-966.89" x2="386.43" y2="-548.09"/>
				<line class="st1" x1="193.19" y1="-968.59" x2="388.47" y2="-549.8"/>
				<line class="st1" x1="195.23" y1="-970.3" x2="390.52" y2="-551.51"/>
				<line class="st1" x1="197.28" y1="-972.01" x2="392.56" y2="-553.22"/>
				<line class="st1" x1="199.32" y1="-973.72" x2="394.61" y2="-554.93"/>
				<line class="st1" x1="201.37" y1="-975.43" x2="396.65" y2="-556.64"/>
				<line class="st1" x1="203.41" y1="-977.14" x2="398.7" y2="-558.35"/>
				<line class="st1" x1="205.46" y1="-978.85" x2="400.74" y2="-560.06"/>
				<line class="st1" x1="207.5" y1="-980.56" x2="402.79" y2="-561.77"/>
				<line class="st1" x1="209.55" y1="-982.27" x2="404.84" y2="-563.48"/>
				<line class="st1" x1="211.59" y1="-983.98" x2="406.88" y2="-565.19"/>
				<line class="st1" x1="213.64" y1="-985.69" x2="408.93" y2="-566.9"/>
				<line class="st1" x1="215.68" y1="-987.4" x2="410.97" y2="-568.61"/>
				<line class="st1" x1="217.73" y1="-989.11" x2="413.02" y2="-570.32"/>
				<line class="st1" x1="219.77" y1="-990.82" x2="415.06" y2="-572.03"/>
				<line class="st1" x1="221.82" y1="-992.53" x2="417.11" y2="-573.74"/>
				<line class="st1" x1="223.87" y1="-994.24" x2="419.15" y2="-575.45"/>
				<line class="st1" x1="225.91" y1="-995.95" x2="421.2" y2="-577.16"/>
				<line class="st1" x1="227.96" y1="-997.66" x2="423.24" y2="-578.87"/>
				<line class="st1" x1="230" y1="-999.37" x2="425.29" y2="-580.58"/>
				<line class="st1" x1="232.05" y1="-1001.08" x2="427.33" y2="-582.29"/>
				<line class="st1" x1="234.09" y1="-1002.79" x2="429.38" y2="-584"/>
				<line class="st1" x1="236.14" y1="-1004.5" x2="431.42" y2="-585.71"/>
				<line class="st1" x1="238.18" y1="-1006.21" x2="433.47" y2="-587.42"/>
				<line class="st1" x1="240.23" y1="-1007.92" x2="435.51" y2="-589.13"/>
				<line class="st1" x1="242.27" y1="-1009.63" x2="437.56" y2="-590.84"/>
				<line class="st1" x1="244.32" y1="-1011.34" x2="439.6" y2="-592.55"/>
				<line class="st1" x1="246.36" y1="-1013.05" x2="441.65" y2="-594.26"/>
				<line class="st1" x1="248.41" y1="-1014.76" x2="443.69" y2="-595.97"/>
				<line class="st1" x1="250.45" y1="-1016.47" x2="445.74" y2="-597.68"/>
				<line class="st1" x1="252.5" y1="-1018.18" x2="447.78" y2="-599.39"/>
				<line class="st1" x1="254.54" y1="-1019.89" x2="449.83" y2="-601.1"/>
				<line class="st1" x1="256.59" y1="-1021.6" x2="451.88" y2="-602.81"/>
				<line class="st1" x1="258.63" y1="-1023.31" x2="453.92" y2="-604.52"/>
				<line class="st1" x1="260.68" y1="-1025.02" x2="455.97" y2="-606.23"/>
				<line class="st1" x1="262.72" y1="-1026.73" x2="458.01" y2="-607.94"/>
				<line class="st1" x1="264.77" y1="-1028.44" x2="460.06" y2="-609.65"/>
				<line class="st1" x1="266.81" y1="-1030.15" x2="462.1" y2="-611.36"/>
				<line class="st1" x1="268.86" y1="-1031.86" x2="464.15" y2="-613.07"/>
				<line class="st1" x1="270.91" y1="-1033.57" x2="466.19" y2="-614.78"/>
				<line class="st1" x1="272.95" y1="-1035.28" x2="468.24" y2="-616.49"/>
				<line class="st1" x1="275" y1="-1036.99" x2="470.28" y2="-618.2"/>
				<line class="st1" x1="277.04" y1="-1038.7" x2="472.33" y2="-619.91"/>
				<line class="st1" x1="279.09" y1="-1040.41" x2="474.37" y2="-621.62"/>
				<line class="st1" x1="281.13" y1="-1042.12" x2="476.42" y2="-623.33"/>
				<line class="st1" x1="283.18" y1="-1043.83" x2="478.46" y2="-625.04"/>
				<line class="st1" x1="285.22" y1="-1045.54" x2="480.51" y2="-626.75"/>
				<line class="st1" x1="287.27" y1="-1047.25" x2="482.55" y2="-628.46"/>
				<line class="st1" x1="289.31" y1="-1048.96" x2="484.6" y2="-630.17"/>
				<line class="st1" x1="291.36" y1="-1050.67" x2="486.64" y2="-631.88"/>
				<line class="st1" x1="293.4" y1="-1052.38" x2="488.69" y2="-633.59"/>
				<line class="st1" x1="295.45" y1="-1054.09" x2="490.73" y2="-635.3"/>
				<line class="st1" x1="297.49" y1="-1055.8" x2="492.78" y2="-637.01"/>
				<line class="st1" x1="299.54" y1="-1057.51" x2="494.83" y2="-638.72"/>
				<line class="st1" x1="301.58" y1="-1059.22" x2="496.87" y2="-640.43"/>
				<line class="st1" x1="303.63" y1="-1060.93" x2="498.92" y2="-642.14"/>
				<line class="st1" x1="305.67" y1="-1062.64" x2="500.96" y2="-643.85"/>
				<line class="st1" x1="307.72" y1="-1064.35" x2="503.01" y2="-645.56"/>
				<line class="st1" x1="309.76" y1="-1066.06" x2="505.05" y2="-647.27"/>
				<line class="st1" x1="311.81" y1="-1067.77" x2="507.1" y2="-648.98"/>
				<line class="st1" x1="313.85" y1="-1069.48" x2="509.14" y2="-650.69"/>
				<line class="st1" x1="315.9" y1="-1071.19" x2="511.19" y2="-652.4"/>
				<line class="st1" x1="317.95" y1="-1072.9" x2="513.23" y2="-654.11"/>
				<line class="st1" x1="319.99" y1="-1074.61" x2="515.28" y2="-655.82"/>
				<line class="st1" x1="322.04" y1="-1076.32" x2="517.32" y2="-657.53"/>
				<line class="st1" x1="324.08" y1="-1078.03" x2="519.37" y2="-659.24"/>
				<line class="st1" x1="326.13" y1="-1079.74" x2="521.41" y2="-660.95"/>
				<line class="st1" x1="328.17" y1="-1081.45" x2="523.46" y2="-662.66"/>
				<line class="st1" x1="330.22" y1="-1083.16" x2="525.5" y2="-664.37"/>
				<line class="st1" x1="332.26" y1="-1084.87" x2="527.55" y2="-666.08"/>
			</g>
		</g>
		<g>
			<g>
				<line class="st1" x1="0.45" y1="-1016.47" x2="195.74" y2="-597.68"/>
				<line class="st1" x1="2.5" y1="-1018.18" x2="197.78" y2="-599.39"/>
				<line class="st1" x1="4.54" y1="-1019.89" x2="199.83" y2="-601.1"/>
				<line class="st1" x1="6.59" y1="-1021.6" x2="201.88" y2="-602.81"/>
				<line class="st1" x1="8.63" y1="-1023.31" x2="203.92" y2="-604.52"/>
				<line class="st1" x1="10.68" y1="-1025.02" x2="205.97" y2="-606.23"/>
				<line class="st1" x1="12.72" y1="-1026.73" x2="208.01" y2="-607.94"/>
				<line class="st1" x1="14.77" y1="-1028.44" x2="210.06" y2="-609.65"/>
				<line class="st1" x1="16.81" y1="-1030.15" x2="212.1" y2="-611.36"/>
				<line class="st1" x1="18.86" y1="-1031.86" x2="214.15" y2="-613.07"/>
				<line class="st1" x1="20.91" y1="-1033.57" x2="216.19" y2="-614.78"/>
				<line class="st1" x1="22.95" y1="-1035.28" x2="218.24" y2="-616.49"/>
				<line class="st1" x1="25" y1="-1036.99" x2="220.28" y2="-618.2"/>
				<line class="st1" x1="27.04" y1="-1038.7" x2="222.33" y2="-619.91"/>
				<line class="st1" x1="29.09" y1="-1040.41" x2="224.37" y2="-621.62"/>
				<line class="st1" x1="31.13" y1="-1042.12" x2="226.42" y2="-623.33"/>
				<line class="st1" x1="33.18" y1="-1043.83" x2="228.46" y2="-625.04"/>
				<line class="st1" x1="35.22" y1="-1045.54" x2="230.51" y2="-626.75"/>
				<line class="st1" x1="37.27" y1="-1047.25" x2="232.55" y2="-628.46"/>
				<line class="st1" x1="39.31" y1="-1048.96" x2="234.6" y2="-630.17"/>
				<line class="st1" x1="41.36" y1="-1050.67" x2="236.64" y2="-631.88"/>
				<line class="st1" x1="43.4" y1="-1052.38" x2="238.69" y2="-633.59"/>
				<line class="st1" x1="45.45" y1="-1054.09" x2="240.73" y2="-635.3"/>
				<line class="st1" x1="47.49" y1="-1055.8" x2="242.78" y2="-637.01"/>
				<line class="st1" x1="49.54" y1="-1057.51" x2="244.83" y2="-638.72"/>
				<line class="st1" x1="51.58" y1="-1059.22" x2="246.87" y2="-640.43"/>
				<line class="st1" x1="53.63" y1="-1060.93" x2="248.92" y2="-642.14"/>
				<line class="st1" x1="55.67" y1="-1062.64" x2="250.96" y2="-643.85"/>
				<line class="st1" x1="57.72" y1="-1064.35" x2="253.01" y2="-645.56"/>
				<line class="st1" x1="59.76" y1="-1066.06" x2="255.05" y2="-647.27"/>
				<line class="st1" x1="61.81" y1="-1067.77" x2="257.1" y2="-648.98"/>
				<line class="st1" x1="63.85" y1="-1069.48" x2="259.14" y2="-650.69"/>
				<line class="st1" x1="65.9" y1="-1071.19" x2="261.19" y2="-652.4"/>
				<line class="st1" x1="67.95" y1="-1072.9" x2="263.23" y2="-654.11"/>
				<line class="st1" x1="69.99" y1="-1074.61" x2="265.28" y2="-655.82"/>
				<line class="st1" x1="72.04" y1="-1076.32" x2="267.32" y2="-657.53"/>
				<line class="st1" x1="74.08" y1="-1078.03" x2="269.37" y2="-659.24"/>
				<line class="st1" x1="76.13" y1="-1079.74" x2="271.41" y2="-660.95"/>
				<line class="st1" x1="78.17" y1="-1081.45" x2="273.46" y2="-662.66"/>
				<line class="st1" x1="80.22" y1="-1083.16" x2="275.5" y2="-664.37"/>
				<line class="st1" x1="82.26" y1="-1084.87" x2="277.55" y2="-666.08"/>
			</g>
		</g>
	</g>
</pattern>
<rect class="st3" width="250" height="250"/>
</svg>
