<svg xmlns="http://www.w3.org/2000/svg" viewBox="0 0 721.56 852.59"><defs><style>.cls-1{fill:#f4d4ae;}.cls-2{fill:#603d3b;}.cls-3{fill:#dab281;}.cls-4{fill:#be7d45;}.cls-5{fill:#ef4470;}.cls-6{fill:none;stroke:#000;stroke-linecap:round;stroke-linejoin:round;stroke-width:4px;}.cls-7{fill:#de9086;}.cls-8{fill:#fff;}</style></defs><g id="Laag_2" data-name="Laag 2"><path class="cls-1" d="M724.21,639.4c-6.24,7.07-15.27,11-24.19,14.08a206.5,206.5,0,0,1-99.55,8.63c4.63,21.3,9.55,51.21,7.66,71.82-2,21.86-10.91,43.92-28,57.64-7.82,6.25-17,10.56-26.37,14.1-25,9.51-56.59,14.21-83.6,13.55a37.48,37.48,0,0,1-6.41,12.89c-8.63,10.94-24.45,14.72-37.89,10.89,1.09,16-1.23,36.93-5.6,51.18-2.09,6.8-5.2,13.89-11.37,17.48-7.72,4.49-17.58,2-25.74-1.67-21.59-9.72-39.44-26.58-52.93-46s-22.83-41.47-30.5-63.86c-13.21-38.61-21.63-94.76-25-137.58-12.89-1.48-26.36-5.36-34.7-15.28-9.36-11.12-10-27.58-5.32-41.35s13.87-25.45,22.92-36.81C261,564.7,277,548.26,285.12,541.7c49.66,28.12,100.19,54.82,151.6,79.25,41-9.34,77.93-18.05,118.94-27.38,14.28-3.25,28.63-6.51,42.77-10.34,18.83,10.29,46.28,22.67,90.65,20.72,7.09-.31,14.21-1.77,21.25-.88s14.23,4.11,17.92,10.19C733.15,621.34,730.46,632.34,724.21,639.4Z" transform="translate(-200.52 -72.17)"/><path class="cls-2" d="M716.75,631.94c-12.59,13.12-35.42,16.91-52.63,19.76a195,195,0,0,1-60.85.24c-8-1.22-14.78,4.52-13,13,7.52,35,16.17,78.89-8,109.63-12.14,15.4-32.12,22.25-50.46,27a229.23,229.23,0,0,1-61.71,7.13c-4.79-.09-8.75,3.36-10.16,7.73-4.53,14-17.33,19.92-31.34,16.43-6.3-1.58-13.73,3.12-13.34,10.16a144.89,144.89,0,0,1-3.91,43.67c-1.3,5.08-2.82,13-7.84,15.89-5.24,3-12.86-.62-17.68-2.87-27.69-12.92-47.21-38.27-60.64-64.94-26.51-52.67-35.3-114.09-40-172.24-.5-6.24-4.46-9.77-10.54-10.54-12.16-1.54-26.07-5.86-30.62-18.53-4.28-11.9-.26-24.86,5.71-35.37,10.56-18.62,26.39-35.33,42.83-48.91L279.8,550.8q38,21.5,76.63,41.79,19.32,10.11,38.83,19.85c12,6,24.62,13.92,37.4,18.14,6.36,2.11,14.09-1.11,20.39-2.56l19.87-4.57,42.33-9.79c28.68-6.63,57.54-12.66,86-20.27l-8.12-1.06C612,602.59,632,609.85,653.34,612.81a206.42,206.42,0,0,0,44.86.92c5.87-.46,12.86-1.28,18.06,2.17,5.83,3.87,4.38,11.18.49,16-8.39,10.5,6.43,25.5,14.91,14.91,8.76-11,13.42-25.93,5.68-38.91-7.42-12.46-22.54-16.27-36.1-15.53-27.9,1.5-54.26.91-80.51-10-4.29-1.78-8.48-3.84-12.6-6-7.2-3.75-11.06-3.74-19-1.68-16.5,4.27-33.15,7.9-49.76,11.71-35.15,8-70.26,16.27-105.41,24.29l8.12,1.06c-51.5-24.52-102-51.17-151.6-79.24-4.41-2.5-9.07-1.41-12.77,1.64-21.88,18.08-46,43.52-54,71.29-4.38,15.27-3.18,33,6.41,46.06,10.58,14.42,27.61,19.3,44.54,21.45l-10.53-10.54c4.35,53.74,12.17,108.92,32.35,159.22,10.7,26.66,24.68,52.34,45.51,72.48,16.14,15.59,46,38.67,69.8,27.69,13-6,17.94-20.44,20.78-33.41A169.23,169.23,0,0,0,436.35,843L423,853.16c25.47,6.35,49.15-6.08,57.26-31.14l-10.16,7.73a248.69,248.69,0,0,0,70.15-8.64c22-6.06,44.18-15.37,58.6-33.81,28.66-36.63,20.81-85.88,11.77-128l-13,13a227.34,227.34,0,0,0,72.05-.25c21.13-3.51,46.55-9.15,61.94-25.17C741.06,637.06,726.17,622.14,716.75,631.94Z" transform="translate(-200.52 -72.17)"/><path class="cls-3" d="M587,666q-4.79,28.56-9.55,57.13c-1.26,7.52,2,15.22,9.87,17.39,7.07,1.94,15.77-2.38,17.4-9.87L607,720.13l-27.28-7.52c-4.78,22.54-7.19,46.56-30.49,57.31-10.94,5-23.05,6.78-34.44,10.44-13.62,4.37-26.12,11.4-38.63,18.19-16,8.68-1.75,33.11,14.27,24.42,13.73-7.45,26.67-14.14,41.84-18.1,13.22-3.45,26.88-7.09,38.51-14.53,25.11-16.06,30.46-43.07,36.22-70.21,3.76-17.74-23.41-25.34-27.28-7.52l-2.28,10.55,27.27,7.52q4.77-28.57,9.55-57.13c1.26-7.53-2-15.23-9.88-17.4-6.77-1.86-16.13,2.3-17.39,9.88Z" transform="translate(-200.52 -72.17)"/><path class="cls-2" d="M716.75,631.94c-12.59,13.12-35.42,16.91-52.63,19.76a195,195,0,0,1-60.85.24c-8-1.22-14.78,4.52-13,13,7.52,35,16.17,78.89-8,109.63-12.14,15.4-32.12,22.25-50.46,27a229.23,229.23,0,0,1-61.71,7.13c-4.79-.09-8.75,3.36-10.16,7.73-4.53,14-17.33,19.92-31.34,16.43-6.3-1.58-13.73,3.12-13.34,10.16a144.89,144.89,0,0,1-3.91,43.67c-1.3,5.08-2.82,13-7.84,15.89-5.24,3-12.86-.62-17.68-2.87-27.69-12.92-47.21-38.27-60.64-64.94-26.51-52.67-35.3-114.09-40-172.24-.5-6.24-4.46-9.77-10.54-10.54-12.16-1.54-26.07-5.86-30.62-18.53-4.28-11.9-.26-24.86,5.71-35.37,10.56-18.62,26.39-35.33,42.83-48.91L279.8,550.8q38,21.5,76.63,41.79,19.32,10.11,38.83,19.85c12,6,24.62,13.92,37.4,18.14,6.36,2.11,14.09-1.11,20.39-2.56l19.87-4.57,42.33-9.79c28.68-6.63,57.54-12.66,86-20.27l-8.12-1.06C612,602.59,632,609.85,653.34,612.81a206.42,206.42,0,0,0,44.86.92c5.87-.46,12.86-1.28,18.06,2.17,5.83,3.87,4.38,11.18.49,16-8.39,10.5,6.43,25.5,14.91,14.91,8.76-11,13.42-25.93,5.68-38.91-7.42-12.46-22.54-16.27-36.1-15.53-27.9,1.5-54.26.91-80.51-10-4.29-1.78-8.48-3.84-12.6-6-7.2-3.75-11.06-3.74-19-1.68-16.5,4.27-33.15,7.9-49.76,11.71-35.15,8-70.26,16.27-105.41,24.29l8.12,1.06c-51.5-24.52-102-51.17-151.6-79.24-4.41-2.5-9.07-1.41-12.77,1.64-21.88,18.08-46,43.52-54,71.29-4.38,15.27-3.18,33,6.41,46.06,10.58,14.42,27.61,19.3,44.54,21.45l-10.53-10.54c4.35,53.74,12.17,108.92,32.35,159.22,10.7,26.66,24.68,52.34,45.51,72.48,16.14,15.59,46,38.67,69.8,27.69,13-6,17.94-20.44,20.78-33.41A169.23,169.23,0,0,0,436.35,843L423,853.16c25.47,6.35,49.15-6.08,57.26-31.14l-10.16,7.73a248.69,248.69,0,0,0,70.15-8.64c22-6.06,44.18-15.37,58.6-33.81,28.66-36.63,20.81-85.88,11.77-128l-13,13a227.34,227.34,0,0,0,72.05-.25c21.13-3.51,46.55-9.15,61.94-25.17C741.06,637.06,726.17,622.14,716.75,631.94Z" transform="translate(-200.52 -72.17)"/><path class="cls-2" d="M603.27,651.94c-2.39-.37-4.78-.79-7.15-1.26a11.24,11.24,0,0,0-8.12,1.06,10.55,10.55,0,0,0-3.78,14.42c1.42,2.21,3.62,4.31,6.3,4.84q3.56.71,7.15,1.27c2.89.45,5.49.47,8.12-1.06a10.55,10.55,0,0,0,3.78-14.42c-1.39-2.16-3.65-4.43-6.3-4.85Z" transform="translate(-200.52 -72.17)"/><path class="cls-2" d="M480.27,822c3-11.2,3.14-22.8,3.61-34.3.54-13.56-20.53-13.53-21.08,0-.39,9.65-.36,19.31-2.85,28.69-3.49,13.13,16.83,18.72,20.32,5.61Z" transform="translate(-200.52 -72.17)"/><path class="cls-2" d="M428.61,832.84c-27.09-8.17-32.09-41.52-30.23-65.59.94-12.19,4.56-24.58,15.46-31.39,9.85-6.16,22.76-7.05,34-5.49,13.27,1.84,19-18.46,5.61-20.32-16.71-2.33-34.23-1.61-49.24,7-16.5,9.44-24.12,26.53-26.36,44.74-4.37,35.57,6.7,79.8,45.14,91.39,13,3.92,18.58-16.41,5.6-20.32Z" transform="translate(-200.52 -72.17)"/><path class="cls-2" d="M285.76,613.11c12.29,2,37.69,8,29.06,25.93-7,14.52-26.52,14.54-40.17,12.93-13.44-1.58-13.33,19.51,0,21.08,24.49,2.88,53.08-4.37,61.37-30.52,3.79-11.94.33-24.31-8-33.42-9.47-10.35-23.3-14.12-36.65-16.32s-19,18.12-5.61,20.32Z" transform="translate(-200.52 -72.17)"/><path class="cls-1" d="M686.62,216.56c-3.46-19.34-6.94-38.8-14-57.15l-2.95-1a949.1,949.1,0,0,0-211.31-33.78c-15.28-.7-30.58-1-45.82-2.21C380.74,120,349.34,113.83,318,107.7l-4.27-.74C236.56,218.67,198.34,364.24,214.85,499l.07,1.75q34.8,20.87,70.2,40.94c49.66,28.12,100.19,54.82,151.6,79.25,41-9.34,77.93-18.05,118.94-27.38,14.28-3.25,28.63-6.51,42.77-10.34,18.67-5.1,37-11.17,54.43-19.53,20.5-9.86,46.28-26.47,63.72-41.05l.25-.6C722.73,419.65,704.64,317.55,686.62,216.56ZM472.3,193a13.13,13.13,0,0,1-5.75-.46c-4.86-1.69-7.46-7.07-8.15-12.16-1.08-8,2-17,9.05-20.82s17.8.15,18.91,8.12l.62,9.22C488.3,185,480.38,192.13,472.3,193Z" transform="translate(-200.52 -72.17)"/><path class="cls-2" d="M689.16,215.86c-2.5-14-5-28-8.85-41.63-1.27-4.5-2.28-13-5.57-16.42-2-2.07-6.73-2.61-9.16-3.28q-42-11.46-85-19-42.42-7.47-85.41-11.11c-28.63-2.42-57.4-2.45-86-4.88-32-2.72-63.17-9.63-94.73-15.09a2.79,2.79,0,0,0-3,1.21c-45,65.48-76.14,140.33-91.71,218.21a571.1,571.1,0,0,0-11.31,115.84c.13,19.35,0,40.29,3.77,59.33,1.24,6.15,7.63,7.77,13,11q14.55,8.65,29.18,17.16c39.77,23.09,80,45.34,120.92,66.36q14.91,7.66,29.94,15.11,7.5,3.72,15,7.38c4.51,2.19,10.18,6.48,15.1,7.25,7.61,1.19,18-3.38,25.55-5.12l35.95-8.31c43.8-10.15,89-17.94,131.44-33.11A278.83,278.83,0,0,0,681,551.15c8.29-5.11,16.4-10.53,24.25-16.3,3.89-2.86,12-7.3,14-11.8,1.59-3.59.73-11,.87-14.8q.38-10.35.46-20.7.15-19-.63-37.92c-1.05-26.45-3.34-52.85-6.42-79.13-6.08-51.85-15.21-103.27-24.37-154.64-.6-3.33-5.67-1.92-5.08,1.4,15.73,88.15,31.55,177,31.25,266.84,0,10.35-.24,20.71-.77,31-.39,7.47-1.52,7.18-7.56,11.81q-5.64,4.31-11.46,8.34c-15.3,10.65-31.4,20.43-48.39,28.16-39.62,18-83.44,25.5-125.59,35.23q-31,7.15-62,14.34c-5.52,1.27-11.13,3-16.72,3.83s-8.86-.12-13.84-2.52q-15.09-7.26-30.07-14.77c-39-19.55-77.45-40.28-115.41-61.81q-28-15.87-55.63-32.34c-2.38-1.41-9.18-4.24-10.37-6-1.42-2.08-1-9.19-1.29-11.94q-1.44-14.43-2-28.92a554.44,554.44,0,0,1,7.2-114.51c14-84.23,46.27-165.38,94.64-235.79l-3,1.21c24.71,4.27,49.17,9.59,74.05,12.86,27.59,3.62,55.31,3.91,83,5.51a946.4,946.4,0,0,1,169.73,25.45q12.21,3,24.33,6.29c1.58.44,5.72.77,7,2.08s2,7.38,2.63,9.24c4.67,15.14,7.45,30.76,10.24,46.33C684.67,220.59,689.75,219.18,689.16,215.86Z" transform="translate(-200.52 -72.17)"/><path class="cls-2" d="M472.3,190.4c-22.6,1.34-8.08-42.06,8.57-27.05,3.62,3.26,3.08,7.86,3.39,12.34.58,8.22-4.7,13.45-12.66,14.8-3.34.57-1.92,5.65,1.4,5.08,11.42-1.94,17.17-10.34,16.43-21.41-.6-8.86-2.56-16.38-12.68-18.33-24.49-4.73-29.71,41.34-4.45,39.84C475.67,195.47,475.69,190.2,472.3,190.4Z" transform="translate(-200.52 -72.17)"/><path class="cls-3" d="M632.33,175c10.35,52.78,18.73,106,27.87,159,4.91,28.51,6.69,56.53,7.79,85.39,1.14,30,3.91,59.85,6.67,89.7,1.17,12.68,10,23.57,23.56,23.57,11.84,0,24.75-10.82,23.57-23.57-2.86-31-5.73-62-6.79-93.16a677.68,677.68,0,0,0-8.77-91.11c-9.19-54.13-17.88-108.51-28.45-162.39-2.45-12.5-17.38-19.65-29-16.46-13,3.58-18.92,16.46-16.46,29Z" transform="translate(-200.52 -72.17)"/><path class="cls-3" d="M677.16,476.69c-6.55,12.58-18,20.5-29.27,28.56-13.57,9.68-27,21.18-41.86,28.77-14.43,7.36-29,13.85-43.18,21.82l-47.19,26.55c-14.43,8.11-4.39,29.1,10.89,25.84s29.23-10.47,43.15-17.41c13.44-6.7,26.34-10.12,40.81-13.88,8.23-2.13,15.4-5.86,22.71-10.08,6.42-3.7,13.18-6.15,20-9,15.58-6.51,28.59-16.93,41.6-27.49,5.93-4.82,5-15,0-20-5.87-5.86-14.06-4.83-20,0-12,9.74-23.79,18.13-38.22,23.83C623,539.61,611.46,547.85,597,551a168,168,0,0,0-39,14.1c-12.75,6.28-25,12.85-39,15.84l10.89,25.85,48.71-27.4c8-4.48,15.84-9.17,24.07-13.13,7.63-3.68,15.66-6.37,22.9-10.83,14.77-9.11,28.72-20.05,42.77-30.23,13.07-9.48,25.61-19.68,33.2-34.25,8.39-16.13-16-30.45-24.42-14.28Z" transform="translate(-200.52 -72.17)"/><path class="cls-2" d="M696.78,213.76c-2.5-14-5-28-8.85-41.63-1.69-6-3.11-14.09-7-19.11-3-3.9-8.77-4.88-13.27-6.11q-42-11.46-85-19c-29-5.1-58.2-8.92-87.51-11.4-28.63-2.41-57.4-2.45-86-4.88-31.28-2.65-61.77-9.47-92.63-14.8-5-.86-9,.67-11.9,4.84-45.32,66-76.82,141.64-92.51,220.09a582.59,582.59,0,0,0-11.6,118A585.47,585.47,0,0,0,204.31,499c1.12,10.29,8.67,12.89,16.91,17.79q14.55,8.66,29.19,17.15c39.76,23.09,80,45.34,120.91,66.37q14.91,7.66,29.94,15.11c9.82,4.86,19.83,10.89,30.14,14.62,9.41,3.41,22.11-2.13,31.64-4.32q18-4.14,35.95-8.31c43.81-10.15,89-17.94,131.44-33.11A288.6,288.6,0,0,0,684.94,558c8.29-5.12,16.4-10.54,24.25-16.31,5.78-4.25,15.28-9.44,17.68-16.52,1.63-4.83,1-11.85,1.15-16.9q.38-10.35.46-20.7.15-19-.63-37.92c-1.05-26.45-3.33-52.85-6.41-79.13-6.17-52.56-15.37-104.67-24.66-156.74-2.38-13.33-22.69-7.68-20.32,5.6C690.66,299,704.91,379,707.13,460q.39,14.66.26,29.31c-.06,5.18-.16,10.35-.33,15.53-.14,4.35.67,10.59-.52,14.75.86-3,1.53-2.6-1.42-1.08a37.78,37.78,0,0,0-4.32,3.33q-4.56,3.44-9.25,6.68Q680.68,536,669.3,542.81c-32.07,19.07-67.13,29.2-103.25,37.58q-66,15.32-132.13,30.4l8.12,1.06c-76-36.18-149.63-77-221.8-120.19l5.22,9.1c-.49-12.11-2.46-24.23-3.11-36.37q-1-19.62-.64-39.3a547,547,0,0,1,7.53-80.37,587.55,587.55,0,0,1,48.51-154.33,574,574,0,0,1,45.08-78.11l-11.9,4.84c28.22,4.88,56.15,10.92,84.64,14.19,31.41,3.61,63.11,3.35,94.61,5.84a924.85,924.85,0,0,1,93.51,12.24c28.73,5.27,58.48,10.78,86.18,20.18l-7.36-7.36c6.85,18.5,10.48,37.79,14,57.15C678.84,232.69,699.16,227,696.78,213.76Z" transform="translate(-200.52 -72.17)"/><path class="cls-4" d="M480.92,185.44c31.08-6.37,45.15-35.86,61.48-59.6,9.11-13.24,20.31-22.84,35.85-27.59,14.07-4.31,28.91-5.53,43.55-4.72A140.4,140.4,0,0,1,701,123.9c25.23,20.34,40.48,49.36,55.16,77.61q28.61,55.07,54.75,111.36c5.72,12.29,23.89,1.6,18.2-10.63Q804.36,249.1,777.5,197c-15.61-30.23-31.59-61.68-57.51-84.53a161.45,161.45,0,0,0-82-38.26c-29.44-4.46-64.86-2.55-89.89,15.35-14.92,10.67-24.38,26.16-34,41.39-9.43,14.91-20.46,30.42-38.77,34.17-13.28,2.72-7.66,23,5.6,20.32Z" transform="translate(-200.52 -72.17)"/><path d="M821.05,323.84c13.57,0,13.59-21.08,0-21.08s-13.58,21.08,0,21.08Z" transform="translate(-200.52 -72.17)"/><path class="cls-5" d="M822.31,320.53A23.94,23.94,0,0,0,832.93,319c2.21-.74,3-.56.41.74S816,324,813.91,321.46l3.08,7.45c-.06,3.3-.15.95,2.86-.4a10.35,10.35,0,0,1,5.34-.86c5.67.81,11.25-1.4,13-7.36,1.42-4.93-1.73-12.16-7.36-13-12.79-1.83-32,3.1-34.65,18.28-3.23,18.55,22.71,17.95,34.39,16.47,13.47-1.69,28.06-11.81,25.07-27.24A22,22,0,0,0,844,299.59a20.24,20.24,0,0,0-10.49-2.25c-3.86.2-7.47,2.56-11.23,2.11-5.7-.69-10.48,5.33-10.54,10.54-.06,6.26,4.91,9.86,10.54,10.54Z" transform="translate(-200.52 -72.17)"/><path class="cls-5" d="M851.67,333.3q-2.05-2-2.3,0a3.85,3.85,0,0,1-2,2.53c-2,1.77-5.86,2.51-8.39,3a47.65,47.65,0,0,1-9.31.86l-3.05-.08q-6.78-1.64-4.62,8.82c11.27-7.44.73-25.7-10.64-18.2a15.77,15.77,0,0,0,.5,27c10.37,6.27,27.52,4.1,38.39.35,11.76-4.06,21.69-14.33,20.13-27.51-1.47-12.47-12.61-19-24.36-17.12-13.35,2.18-7.69,22.49,5.6,20.32Z" transform="translate(-200.52 -72.17)"/><path class="cls-5" d="M854.68,348.16c-.8.16,4.14,6,4.27,6.76q2.09,1.71-.72,2.85a27.32,27.32,0,0,1-4.66,2.83,22.2,22.2,0,0,1-10.51,1.89,18.4,18.4,0,0,1-5.19-1q-3.86-3.49-7.62,2.75c12.11,6,22.8-12.15,10.64-18.2-13.95-6.94-29.44,4.95-24.88,20.51s24.2,19,38,16c13.39-2.94,29.37-14,26.43-29.49C877.76,339,864,324.76,849.08,327.83c-13.28,2.74-7.66,23.06,5.6,20.33Z" transform="translate(-200.52 -72.17)"/><path class="cls-5" d="M845.5,373.51,863,367.4c5.37-1.88,8.94-7.21,7.36-13-1.43-5.21-7.57-9.25-13-7.36l-17.47,6.11c-5.37,1.88-8.94,7.21-7.36,13,1.43,5.22,7.57,9.25,13,7.36Z" transform="translate(-200.52 -72.17)"/><path class="cls-5" d="M829.84,365A565,565,0,0,0,832.2,468.1c1.53,13.32,22.62,13.47,21.08,0A565,565,0,0,1,850.92,365c.92-13.54-20.16-13.49-21.08,0Z" transform="translate(-200.52 -72.17)"/><path class="cls-5" d="M832.94,372.9a210.12,210.12,0,0,0,24.94,106.2c6.4,12,24.6,1.34,18.2-10.63A188.35,188.35,0,0,1,854,372.9c.45-13.57-20.63-13.55-21.08,0Z" transform="translate(-200.52 -72.17)"/><path class="cls-5" d="M840.25,365.92c1.23,37.56,16.9,73.39,28.93,108.48,4.37,12.75,24.74,7.27,20.32-5.61-11.34-33.07-27-67.49-28.18-102.87-.44-13.53-21.52-13.59-21.07,0Z" transform="translate(-200.52 -72.17)"/><path class="cls-5" d="M844.72,371.05c.27.28.52.56.77.86-1-1.38-1.24-1.63-.62-.73.27.51.57,1,.86,1.52.35.76.33.7-.07-.2s-.42-1-.13-.17.39,1.49.52,2.26l-.38-2.8c.06.38.1.76.13,1.15a11.3,11.3,0,0,0,3.08,7.45,10.7,10.7,0,0,0,7.45,3.09c5.3-.24,11.06-4.66,10.54-10.54a27.14,27.14,0,0,0-7.25-16.79c-3.77-4-11.14-4.1-14.9,0a10.74,10.74,0,0,0,0,14.9Z" transform="translate(-200.52 -72.17)"/><path class="cls-5" d="M856.14,421.49a190.25,190.25,0,0,0,26.83,68c7.27,11.4,25.52.84,18.2-10.64a174.39,174.39,0,0,1-24.7-63c-2.45-13.32-22.76-7.68-20.33,5.6Z" transform="translate(-200.52 -72.17)"/><path class="cls-5" d="M852.29,359.65A400.8,400.8,0,0,0,893.86,477.2c6.44,11.94,24.64,1.31,18.19-10.64a383,383,0,0,1-39.44-112.51c-2.45-13.32-22.77-7.68-20.32,5.6Z" transform="translate(-200.52 -72.17)"/><path class="cls-5" d="M886.3,425.66l2.53,37.82c.89,13.46,22,13.56,21.07,0l-2.52-37.82c-.9-13.47-22-13.57-21.08,0Z" transform="translate(-200.52 -72.17)"/><path class="cls-5" d="M852.86,361.38c27,26.82,35.9,64.55,44.34,100.38,3.11,13.2,23.44,7.61,20.33-5.6-9.31-39.51-20.09-80.19-49.76-109.69-9.63-9.57-24.54,5.33-14.91,14.91Z" transform="translate(-200.52 -72.17)"/><path class="cls-5" d="M866.42,367.39c8.6-2.32,18.46,17.4,21.59,23.3a95.57,95.57,0,0,1,10.27,32.74c1.63,13.29,22.73,13.46,21.07,0-2.22-18.05-7.63-35.35-17.45-50.8C893,358.56,879.51,342,860.82,347.06c-13.08,3.52-7.53,23.86,5.6,20.33Z" transform="translate(-200.52 -72.17)"/><path class="cls-5" d="M861,364.5c9.61-.88,18.45,7.88,24.79,14.22a92.94,92.94,0,0,1,16.84,23.55c6.21,12.07,24.4,1.42,18.2-10.64A109.52,109.52,0,0,0,896.65,360c-9.79-8.75-21.81-17.87-35.67-16.6-13.4,1.22-13.53,22.31,0,21.08Z" transform="translate(-200.52 -72.17)"/><path class="cls-2" d="M360.51,270.32a3.46,3.46,0,0,1-1.22-.22c-4.3-1.59-7.63-5.67-8.91-10.89-1-4.23-.66-8.52-.33-12.3a3.51,3.51,0,1,1,7,.6c-.3,3.4-.6,6.92.16,10,.56,2.28,2,5,4.52,6a3.52,3.52,0,0,1-1.22,6.81Z" transform="translate(-200.52 -72.17)"/><path class="cls-2" d="M289.44,327.35a29,29,0,0,1-25-14.78,3.51,3.51,0,0,1,6.19-3.31,21.56,21.56,0,0,0,21.47,10.87,3.52,3.52,0,0,1,1,7A26.24,26.24,0,0,1,289.44,327.35Z" transform="translate(-200.52 -72.17)"/><path class="cls-2" d="M395.73,245.3a2.89,2.89,0,0,1-.5,0L369,241.52a3.51,3.51,0,1,1,1-7l26.2,3.74a3.51,3.51,0,0,1-.49,7Z" transform="translate(-200.52 -72.17)"/><path class="cls-2" d="M531,276a3.48,3.48,0,0,1-1.26-.24,34.3,34.3,0,0,1-21.46-29.93,3.5,3.5,0,0,1,3.37-3.64,3.45,3.45,0,0,1,3.64,3.37,27.12,27.12,0,0,0,17,23.64A3.52,3.52,0,0,1,531,276Z" transform="translate(-200.52 -72.17)"/><path class="cls-2" d="M571.68,267.37a3.44,3.44,0,0,1-1.21-.22l-18.3-6.7a3.51,3.51,0,1,1,2.42-6.6l18.3,6.7a3.52,3.52,0,0,1-1.21,6.82Z" transform="translate(-200.52 -72.17)"/><path class="cls-6" d="M638.75,389" transform="translate(-200.52 -72.17)"/><path class="cls-2" d="M656.4,396a28,28,0,0,1-25.3-16.3,3.51,3.51,0,1,1,6.43-2.82,21,21,0,0,0,22.28,11.78,3.51,3.51,0,1,1,1.29,6.91A26.68,26.68,0,0,1,656.4,396Z" transform="translate(-200.52 -72.17)"/><path class="cls-2" d="M424.86,466.81c-12.85,6.48-34,28.49-40.45,42.74a165.55,165.55,0,0,1-6.88-51.82l.24-3.56C393.65,458.36,409.28,462.58,424.86,466.81Z" transform="translate(-200.52 -72.17)"/><path class="cls-2" d="M384.41,513.06h-.23a3.5,3.5,0,0,1-3.13-2.5,168.12,168.12,0,0,1-7-52.92l.25-3.71a3.51,3.51,0,0,1,4.4-3.15c13.84,3.66,28.81,7.68,47.11,12.65a3.51,3.51,0,0,1,.66,6.53c-12.53,6.32-32.85,27.79-38.83,41A3.5,3.5,0,0,1,384.41,513.06Zm-3.4-54.4a160.74,160.74,0,0,0,4.55,41.7c7.39-11.28,20-24.53,30.63-32.26C403.06,464.54,391.65,461.48,381,458.66Z" transform="translate(-200.52 -72.17)"/><path class="cls-7" d="M467,560.46c-9.79,9.77-23.66,17.39-37.08,14.09-11.12-2.72-19.22-12.21-25.49-21.8a165.5,165.5,0,0,1-20-43.2c6.43-14.25,27.6-36.26,40.45-42.74,20.17,5.45,40.28,10.91,60.84,16.35a9.18,9.18,0,0,1,3.5,1.48c1.72,1.4,2.16,3.83,2.41,6A86.75,86.75,0,0,1,467,560.46Z" transform="translate(-200.52 -72.17)"/><path class="cls-2" d="M436.53,578.87A31.18,31.18,0,0,1,429,578c-13.19-3.23-22.06-14.84-27.59-23.28a168.39,168.39,0,0,1-20.39-44.13,3.45,3.45,0,0,1,.16-2.45c6.59-14.61,28.22-37.44,42.07-44.42a3.56,3.56,0,0,1,2.5-.26l11.44,3.09c16.09,4.35,32.72,8.85,49.38,13.26a12.06,12.06,0,0,1,4.83,2.16c3,2.45,3.46,6.45,3.67,8.36A89.72,89.72,0,0,1,469.42,563C464.23,568.14,451.64,578.87,436.53,578.87Zm-48.36-69a161.83,161.83,0,0,0,19.15,41c4.88,7.45,12.6,17.67,23.38,20.31,10.34,2.54,23-2.38,33.76-13.16h0a83.7,83.7,0,0,0,23.64-66.91c-.1-.91-.33-3.05-1.13-3.7a7.14,7.14,0,0,0-2.1-.78c-16.76-4.44-33.4-8.93-49.49-13.28l-10.11-2.74C413.07,477.35,394.55,496.93,388.17,509.83Z" transform="translate(-200.52 -72.17)"/><ellipse cx="533.99" cy="369.42" rx="70.89" ry="42" transform="translate(-56.67 816.29) rotate(-87.75)"/><path d="M532.18,443.78l-1.11,0c-12.5-.5-23.8-8.93-31.82-23.76-7.69-14.23-11.51-32.83-10.74-52.37,1.62-41,23.28-73.55,48.41-72.56s44.17,35.15,42.55,76.14C577.88,411.59,556.78,443.78,532.18,443.78Zm3.59-141.7c-20.84,0-38.8,29.21-40.24,65.82-.72,18.3,2.8,35.62,9.9,48.76,6.79,12.56,16,19.69,25.91,20.08h.88c20.84,0,38.79-29.21,40.23-65.82l3.51.14-3.51-.14c1.47-37.12-14.6-68-35.81-68.83C536.35,302.08,536.06,302.08,535.77,302.08Z" transform="translate(-200.52 -72.17)"/><ellipse cx="358.32" cy="348.48" rx="64.8" ry="37.6" transform="translate(-237.18 582.62) rotate(-82)"/><path d="M352.48,416.38a26.63,26.63,0,0,1-3.67-.25c-11.24-1.58-20.63-10.34-26.45-24.65-5.56-13.68-7.24-31-4.75-48.72,5.34-37.93,27.41-65.13,50.22-61.92,11.24,1.58,20.63,10.33,26.45,24.65,5.56,13.67,7.24,31,4.75,48.72l-3.48-.49,3.48.49C394,390.1,374,416.38,352.48,416.38ZM364.3,287.62c-17.51,0-35.32,24.75-39.73,56.12-2.33,16.53-.8,32.55,4.3,45.09,4.84,11.9,12.26,19.12,20.92,20.34,18.3,2.57,37.66-23.05,42.28-55.94h0c2.33-16.54.8-32.55-4.3-45.09-4.83-11.9-12.26-19.13-20.92-20.34A18.22,18.22,0,0,0,364.3,287.62Z" transform="translate(-200.52 -72.17)"/><path class="cls-2" d="M296.45,345a3.49,3.49,0,0,1-2.79-1.38c-11.61-15.14-.67-42.34,24.89-61.94,19-14.56,40.77-20.65,55.5-15.53a3.52,3.52,0,0,1-2.31,6.64c-12.36-4.3-32,1.51-48.92,14.46-21.69,16.63-32.49,40.49-23.58,52.1a3.52,3.52,0,0,1-2.79,5.65Z" transform="translate(-200.52 -72.17)"/><path class="cls-2" d="M631.79,411.29a3.51,3.51,0,0,1-3.32-4.65c7.27-21.23-2.67-54.89-24.75-83.76-29-37.92-69.3-56-89.81-40.33a3.51,3.51,0,1,1-4.27-5.58c23.59-18,68.3.64,99.66,41.65,23.81,31.13,33.94,66.57,25.81,90.29A3.51,3.51,0,0,1,631.79,411.29Z" transform="translate(-200.52 -72.17)"/><ellipse class="cls-8" cx="360.6" cy="334.2" rx="24.05" ry="13.68" transform="translate(-309.65 407.22) rotate(-60)"/><ellipse class="cls-8" cx="529.43" cy="344.77" rx="28.17" ry="13.68" transform="translate(-234.39 558.72) rotate(-60)"/><ellipse class="cls-8" cx="368.45" cy="378.32" rx="11.04" ry="7.52" transform="translate(-330.9 479.52) rotate(-64.92)"/><ellipse class="cls-8" cx="547.5" cy="400.97" rx="11.04" ry="7.52" transform="translate(-181.58 754.43) rotate(-75.06)"/></g></svg>