<svg xmlns="http://www.w3.org/2000/svg" viewBox="0 0 721.56 558.97"><defs><style>.cls-1{fill:#f4d4ae;}.cls-2{fill:#603d3b;}.cls-3{fill:#dab281;}.cls-4{fill:#be7d45;}.cls-5{fill:#ef4470;}.cls-6{fill:none;stroke:#000;stroke-linecap:round;stroke-linejoin:round;stroke-width:4px;}.cls-7{fill:#de9086;}.cls-8{fill:#fff;}</style></defs><g id="Laag_2" data-name="Laag 2"><path class="cls-1" d="M675.18,349.26c-3.46-19.34-6.93-38.8-13.94-57.15l-3-1A949.08,949.08,0,0,0,447,257.33c-15.28-.7-30.57-1-45.82-2.21-31.84-2.45-63.25-8.59-94.58-14.72l-4.27-.74c-77.18,111.71-115.4,257.28-98.88,392.05l.07,1.75q34.8,20.87,70.2,40.94c49.65,28.12,100.18,54.82,151.59,79.25,41-9.34,77.93-18,119-27.38,14.28-3.25,28.63-6.52,42.77-10.35,18.67-5.09,37-11.17,54.43-19.53,20.49-9.85,46.28-26.47,63.72-41l.24-.6C711.3,552.35,693.2,450.25,675.18,349.26ZM460.86,325.73a13,13,0,0,1-5.75-.47c-4.85-1.68-7.46-7.06-8.14-12.15-1.08-8,1.95-17,9-20.82s17.81.15,18.92,8.12l.61,9.22C476.87,317.65,469,324.83,460.86,325.73Z" transform="translate(-189.09 -204.87)"/><path class="cls-2" d="M677.72,348.56c-2.5-14-5-28-8.84-41.63-1.27-4.5-2.29-13-5.57-16.42-2-2.07-6.73-2.62-9.17-3.28q-42-11.46-85-19-42.42-7.47-85.4-11.11c-28.64-2.42-57.4-2.45-86-4.88-32-2.72-63.17-9.64-94.74-15.09a2.76,2.76,0,0,0-3,1.21c-45,65.48-76.14,140.33-91.72,218.2A572,572,0,0,0,197,572.38c.13,19.35,0,40.29,3.78,59.33,1.23,6.15,7.62,7.77,13,11q14.55,8.66,29.19,17.16c39.76,23.09,80,45.33,120.92,66.36q14.91,7.66,29.93,15.11,7.51,3.72,15.05,7.38c4.51,2.19,10.18,6.48,15.09,7.25,7.61,1.19,18-3.38,25.55-5.13q18-4.12,36-8.3c43.8-10.15,89-17.94,131.43-33.12a279.17,279.17,0,0,0,52.63-25.53c8.29-5.11,16.4-10.53,24.24-16.3,3.89-2.87,12-7.31,14-11.8,1.59-3.59.73-11,.87-14.81q.39-10.34.46-20.69.15-19-.63-37.92c-1-26.45-3.33-52.85-6.41-79.14-6.08-51.84-15.21-103.26-24.38-154.63-.59-3.33-5.67-1.92-5.08,1.4,15.73,88.15,31.55,177,31.25,266.84,0,10.35-.24,20.71-.77,31.05-.38,7.47-1.51,7.18-7.56,11.81Q689.94,664,684.1,668c-15.29,10.65-31.4,20.43-48.38,28.16-39.62,18-83.44,25.5-125.6,35.23q-31,7.15-62,14.33c-5.52,1.27-11.13,3-16.72,3.84s-8.86-.12-13.83-2.52q-15.1-7.26-30.08-14.77c-39-19.55-77.44-40.28-115.4-61.81q-28-15.88-55.64-32.34c-2.37-1.41-9.17-4.24-10.36-6-1.42-2.07-1-9.18-1.29-11.93q-1.44-14.43-2-28.92a553.89,553.89,0,0,1,7.2-114.52C224,392.54,256.21,311.4,304.58,241l-3,1.21c24.71,4.27,49.17,9.59,74,12.86,27.59,3.62,55.3,3.9,83,5.51A945.64,945.64,0,0,1,628.42,286q12.2,3,24.32,6.29c1.59.43,5.73.77,7,2.08s2.06,7.37,2.63,9.24c4.67,15.14,7.46,30.76,10.24,46.33C673.24,353.29,678.32,351.88,677.72,348.56Z" transform="translate(-189.09 -204.87)"/><path class="cls-2" d="M460.86,323.1c-22.59,1.34-8.08-42.06,8.58-27.05,3.62,3.26,3.07,7.86,3.39,12.33.58,8.23-4.71,13.45-12.67,14.81-3.33.57-1.92,5.65,1.41,5.08,11.41-1.94,17.17-10.34,16.42-21.41-.59-8.86-2.56-16.38-12.67-18.34-24.49-4.72-29.71,41.35-4.46,39.85C464.23,328.17,464.26,322.9,460.86,323.1Z" transform="translate(-189.09 -204.87)"/><path class="cls-3" d="M620.9,307.69c10.34,52.78,18.73,106,27.87,159,4.91,28.51,6.69,56.53,7.79,85.39,1.14,30,3.9,59.85,6.66,89.7,1.17,12.68,10,23.57,23.57,23.57,11.84,0,24.75-10.82,23.57-23.57-2.87-31-5.74-62-6.79-93.16a676.07,676.07,0,0,0-8.78-91.11c-9.18-54.13-17.88-108.51-28.44-162.39-2.45-12.5-17.38-19.65-29-16.46-13.05,3.58-18.92,16.46-16.46,29Z" transform="translate(-189.09 -204.87)"/><path class="cls-3" d="M665.72,609.39c-6.54,12.58-18,20.5-29.27,28.55-13.57,9.69-27,21.19-41.85,28.78-14.43,7.35-29,13.85-43.19,21.82l-47.19,26.55c-14.43,8.11-4.39,29.1,10.9,25.84s29.23-10.47,43.14-17.41c13.44-6.7,26.34-10.13,40.82-13.88,8.23-2.13,15.39-5.87,22.71-10.08,6.42-3.7,13.18-6.16,20-9,15.58-6.51,28.59-16.93,41.59-27.49,5.93-4.82,5-15,0-20-5.86-5.87-14-4.83-20,0-12,9.73-23.78,18.12-38.21,23.83-13.66,5.4-25.14,13.65-39.61,16.81a169,169,0,0,0-39,14.1c-12.74,6.28-25,12.86-39,15.85l10.9,25.85,48.71-27.4c7.95-4.48,15.84-9.17,24.06-13.13,7.63-3.68,15.66-6.37,22.9-10.83,14.78-9.11,28.72-20,42.77-30.24,13.07-9.47,25.62-19.67,33.2-34.24,8.4-16.13-16-30.45-24.42-14.28Z" transform="translate(-189.09 -204.87)"/><path class="cls-2" d="M685.35,346.46c-2.5-14-5-28-8.85-41.63-1.7-6-3.11-14.09-7-19.11-3-3.9-8.77-4.88-13.27-6.11q-42-11.46-85-19-43.46-7.65-87.5-11.4c-28.64-2.42-57.4-2.45-86-4.88-31.28-2.65-61.77-9.47-92.64-14.8-5-.86-9,.67-11.9,4.84-45.32,66-76.82,141.64-92.51,220.09a551.54,551.54,0,0,0-7.81,177.28c1.12,10.28,8.66,12.89,16.9,17.79q14.55,8.64,29.19,17.15C278.73,689.74,319,712,359.89,733q14.91,7.68,29.93,15.12C399.65,753,409.66,759,420,762.75c9.41,3.41,22.12-2.13,31.64-4.32q18-4.14,36-8.31C531.36,740,576.58,732.18,619,717a289.29,289.29,0,0,0,54.52-26.33c8.29-5.12,16.4-10.54,24.24-16.31,5.78-4.25,15.29-9.44,17.68-16.52,1.64-4.83,1-11.85,1.15-16.91q.39-10.34.47-20.69.15-19-.63-37.92c-1-26.45-3.34-52.85-6.42-79.14-6.16-52.55-15.36-104.66-24.65-156.73-2.38-13.33-22.7-7.68-20.33,5.6,14.2,79.6,28.45,159.58,30.67,240.6q.4,14.65.26,29.31-.08,7.77-.32,15.52c-.14,4.36.67,10.59-.52,14.76.85-3,1.52-2.6-1.42-1.09a38.11,38.11,0,0,0-4.32,3.34c-3,2.29-6.14,4.51-9.26,6.68q-10.86,7.56-22.25,14.33c-32.07,19.07-67.12,29.2-103.24,37.58q-66,15.31-132.14,30.4l8.12,1.06c-76-36.18-149.63-77-221.8-120.19l5.22,9.1c-.48-12.12-2.45-24.23-3.1-36.37q-1-19.64-.65-39.3a549.6,549.6,0,0,1,7.53-80.37,587.92,587.92,0,0,1,48.51-154.33A575.09,575.09,0,0,1,311.4,245l-11.9,4.84c28.22,4.88,56.14,10.92,84.63,14.19,31.41,3.61,63.11,3.34,94.62,5.84a922.38,922.38,0,0,1,93.51,12.24c28.73,5.27,58.47,10.78,86.18,20.18l-7.36-7.36c6.84,18.5,10.47,37.79,13.94,57.15C667.41,365.39,687.73,359.74,685.35,346.46Z" transform="translate(-189.09 -204.87)"/><path class="cls-4" d="M469.49,318.14c31.07-6.37,45.14-35.86,61.48-59.6,9.11-13.24,20.3-22.84,35.85-27.59,14.06-4.31,28.9-5.53,43.54-4.72a140.36,140.36,0,0,1,79.17,30.36C714.77,276.94,730,306,744.69,334.21q28.62,55.07,54.76,111.36c5.71,12.29,23.89,1.6,18.2-10.63q-24.72-53.15-51.59-105.25c-15.61-30.23-31.58-61.67-57.51-84.52a161.4,161.4,0,0,0-82-38.27c-29.45-4.46-64.87-2.54-89.89,15.36-14.92,10.67-24.38,26.16-34,41.39-9.44,14.91-20.47,30.42-38.77,34.17-13.28,2.72-7.66,23,5.6,20.32Z" transform="translate(-189.09 -204.87)"/><path d="M809.62,456.54c13.56,0,13.58-21.08,0-21.08s-13.58,21.08,0,21.08Z" transform="translate(-189.09 -204.87)"/><path class="cls-5" d="M810.88,453.22c3.7.45,7.13-.38,10.62-1.55,2.21-.74,3-.56.4.74s-17.33,4.3-19.43,1.75l3.09,7.45c-.07,3.3-.16.95,2.86-.4a10.33,10.33,0,0,1,5.33-.86c5.68.81,11.25-1.4,13-7.36,1.41-4.93-1.74-12.16-7.37-13-12.78-1.83-32,3.1-34.64,18.28-3.23,18.55,22.71,17.95,34.39,16.47,13.46-1.7,28.06-11.81,25.07-27.24a22.06,22.06,0,0,0-11.57-15.25A20.24,20.24,0,0,0,822.11,430c-3.87.2-7.48,2.56-11.23,2.11-5.7-.69-10.49,5.33-10.54,10.54-.07,6.25,4.91,9.86,10.54,10.53Z" transform="translate(-189.09 -204.87)"/><path class="cls-5" d="M840.24,466q-2.06-2-2.3,0a3.88,3.88,0,0,1-2,2.53c-2,1.77-5.87,2.51-8.4,3a47.54,47.54,0,0,1-9.3.85l-3-.07q-6.79-1.63-4.62,8.82c11.27-7.44.72-25.7-10.64-18.2a15.77,15.77,0,0,0,.49,27c10.37,6.28,27.52,4.11,38.4.36C850.62,486.25,860.55,476,859,462.8c-1.47-12.48-12.62-19-24.36-17.12-13.36,2.18-7.69,22.49,5.6,20.32Z" transform="translate(-189.09 -204.87)"/><path class="cls-5" d="M843.25,480.86c-.8.16,4.14,6,4.26,6.76q2.09,1.71-.71,2.85a27.4,27.4,0,0,1-4.67,2.83,22.3,22.3,0,0,1-10.5,1.89,18.54,18.54,0,0,1-5.2-1q-3.84-3.5-7.62,2.75c12.11,6,22.8-12.15,10.64-18.2-14-6.94-29.44,5-24.87,20.51s24.19,19,38,16c13.39-2.94,29.36-14,26.43-29.49-2.66-14.07-16.42-28.26-31.34-25.19-13.27,2.73-7.65,23.06,5.61,20.33Z" transform="translate(-189.09 -204.87)"/><path class="cls-5" d="M834.07,506.21l17.47-6.11c5.37-1.88,8.94-7.21,7.36-13-1.44-5.21-7.57-9.25-13-7.36l-17.46,6.11c-5.37,1.88-9,7.21-7.37,13,1.44,5.21,7.57,9.25,13,7.36Z" transform="translate(-189.09 -204.87)"/><path class="cls-5" d="M818.41,497.66a565.06,565.06,0,0,0,2.36,103.14c1.52,13.32,22.62,13.47,21.07,0a565.06,565.06,0,0,1-2.36-103.14c.93-13.53-20.15-13.48-21.07,0Z" transform="translate(-189.09 -204.87)"/><path class="cls-5" d="M821.5,505.6a210.25,210.25,0,0,0,25,106.2c6.4,12,24.6,1.33,18.2-10.64a188.29,188.29,0,0,1-22.07-95.56c.45-13.57-20.63-13.55-21.08,0Z" transform="translate(-189.09 -204.87)"/><path class="cls-5" d="M828.81,498.62c1.24,37.55,16.9,73.39,28.93,108.48,4.37,12.75,24.74,7.27,20.32-5.61-11.33-33.07-27-67.49-28.17-102.87-.44-13.53-21.52-13.59-21.08,0Z" transform="translate(-189.09 -204.87)"/><path class="cls-5" d="M833.28,503.75c.27.27.53.56.78.86-1-1.38-1.25-1.63-.63-.73.28.51.58,1,.86,1.51.36.77.33.7-.07-.19s-.41-1-.13-.17.39,1.49.52,2.26l-.37-2.8c0,.38.1.76.12,1.15a11.31,11.31,0,0,0,3.09,7.45,10.74,10.74,0,0,0,7.45,3.09c5.29-.24,11.06-4.66,10.54-10.54a27.24,27.24,0,0,0-7.25-16.8c-3.77-4-11.15-4.09-14.91,0a10.77,10.77,0,0,0,0,14.91Z" transform="translate(-189.09 -204.87)"/><path class="cls-5" d="M844.71,554.19a190.23,190.23,0,0,0,26.82,68c7.28,11.4,25.53.84,18.2-10.64a174.39,174.39,0,0,1-24.7-63c-2.44-13.32-22.76-7.68-20.32,5.6Z" transform="translate(-189.09 -204.87)"/><path class="cls-5" d="M840.86,492.35A401.07,401.07,0,0,0,882.42,609.9c6.44,11.94,24.64,1.31,18.2-10.64a382.43,382.43,0,0,1-39.44-112.52c-2.46-13.32-22.78-7.67-20.32,5.61Z" transform="translate(-189.09 -204.87)"/><path class="cls-5" d="M874.87,558.36l2.52,37.82c.9,13.46,22,13.56,21.08,0l-2.53-37.82c-.89-13.47-22-13.57-21.07,0Z" transform="translate(-189.09 -204.87)"/><path class="cls-5" d="M841.43,494.08c27,26.82,35.9,64.55,44.34,100.38,3.11,13.2,23.44,7.61,20.32-5.6-9.3-39.51-20.08-80.19-49.76-109.69-9.63-9.57-24.54,5.33-14.9,14.91Z" transform="translate(-189.09 -204.87)"/><path class="cls-5" d="M855,500.09c8.59-2.32,18.46,17.39,21.58,23.3a95.57,95.57,0,0,1,10.27,32.74c1.64,13.29,22.74,13.46,21.08,0-2.22-18.06-7.64-35.35-17.45-50.8-9-14.07-22.4-30.6-41.08-25.57-13.09,3.52-7.53,23.86,5.6,20.33Z" transform="translate(-189.09 -204.87)"/><path class="cls-5" d="M849.54,497.19c9.61-.87,18.45,7.89,24.79,14.23A92.55,92.55,0,0,1,891.18,535c6.2,12.06,24.39,1.41,18.2-10.64a109.69,109.69,0,0,0-24.16-31.61c-9.8-8.75-21.82-17.87-35.68-16.6-13.39,1.22-13.52,22.31,0,21.07Z" transform="translate(-189.09 -204.87)"/><path class="cls-2" d="M349.08,403a3.46,3.46,0,0,1-1.22-.22c-4.31-1.59-7.64-5.67-8.91-10.89-1-4.23-.66-8.52-.34-12.31a3.51,3.51,0,0,1,7,.61c-.29,3.4-.59,6.92.16,10,.56,2.28,2,5.05,4.53,6a3.52,3.52,0,0,1-1.22,6.81Z" transform="translate(-189.09 -204.87)"/><path class="cls-2" d="M278,460a28.94,28.94,0,0,1-25-14.77,3.51,3.51,0,0,1,6.2-3.31,21.56,21.56,0,0,0,21.46,10.87,3.51,3.51,0,1,1,1,6.95A24.8,24.8,0,0,1,278,460Z" transform="translate(-189.09 -204.87)"/><path class="cls-2" d="M384.3,378a2.74,2.74,0,0,1-.5,0l-26.21-3.74a3.51,3.51,0,0,1,1-7L384.79,371a3.51,3.51,0,0,1-.49,7Z" transform="translate(-189.09 -204.87)"/><path class="cls-2" d="M519.55,408.64a3.5,3.5,0,0,1-1.26-.23,34.32,34.32,0,0,1-21.46-29.93,3.51,3.51,0,1,1,7-.27,27.12,27.12,0,0,0,17,23.64,3.51,3.51,0,0,1-1.26,6.79Z" transform="translate(-189.09 -204.87)"/><path class="cls-2" d="M560.25,400.06a3.67,3.67,0,0,1-1.21-.21l-18.3-6.7a3.51,3.51,0,0,1,2.41-6.6l18.3,6.7a3.51,3.51,0,0,1-1.2,6.81Z" transform="translate(-189.09 -204.87)"/><path class="cls-6" d="M627.31,521.67" transform="translate(-189.09 -204.87)"/><path class="cls-2" d="M645,528.72a28,28,0,0,1-25.29-16.29,3.51,3.51,0,1,1,6.43-2.82,21,21,0,0,0,22.28,11.78,3.51,3.51,0,0,1,1.28,6.9A25.68,25.68,0,0,1,645,528.72Z" transform="translate(-189.09 -204.87)"/><path class="cls-2" d="M413.43,599.51C400.57,606,379.41,628,373,642.24a165.2,165.2,0,0,1-6.89-51.81l.25-3.57C382.22,591.06,397.85,595.28,413.43,599.51Z" transform="translate(-189.09 -204.87)"/><path class="cls-2" d="M373,645.76h-.24a3.53,3.53,0,0,1-3.13-2.5,168.45,168.45,0,0,1-7-52.92l.25-3.71a3.52,3.52,0,0,1,4.41-3.15c13.84,3.66,28.81,7.68,47.11,12.65a3.52,3.52,0,0,1,.66,6.53c-12.53,6.31-32.85,27.79-38.83,41A3.52,3.52,0,0,1,373,645.76Zm-3.4-54.4a160.31,160.31,0,0,0,4.55,41.7c7.39-11.29,20-24.53,30.63-32.26C391.63,597.24,380.22,594.18,369.58,591.36Z" transform="translate(-189.09 -204.87)"/><path class="cls-7" d="M455.51,693.16c-9.78,9.77-23.66,17.39-37.08,14.09-11.11-2.72-19.21-12.21-25.48-21.8a165.41,165.41,0,0,1-20-43.21c6.43-14.24,27.59-36.25,40.45-42.73,20.16,5.45,40.27,10.91,60.84,16.35a9.13,9.13,0,0,1,3.49,1.48c1.73,1.4,2.17,3.83,2.41,6A86.72,86.72,0,0,1,455.51,693.16Z" transform="translate(-189.09 -204.87)"/><path class="cls-2" d="M425.09,711.57a31.24,31.24,0,0,1-7.5-.91c-13.18-3.23-22.06-14.84-27.58-23.29a168.67,168.67,0,0,1-20.4-44.12,3.51,3.51,0,0,1,.17-2.45c6.59-14.61,28.21-37.44,42.07-44.43a3.52,3.52,0,0,1,2.49-.25l11.45,3.09c16.08,4.35,32.71,8.84,49.38,13.26a12.08,12.08,0,0,1,4.82,2.15c3,2.46,3.46,6.46,3.67,8.37A89.67,89.67,0,0,1,458,695.65C452.8,700.84,440.21,711.57,425.09,711.57Zm-48.36-69.05a161.42,161.42,0,0,0,19.16,41c4.87,7.45,12.6,17.67,23.38,20.31,10.34,2.54,23-2.38,33.76-13.16h0a83.73,83.73,0,0,0,23.65-66.91c-.1-.91-.34-3-1.14-3.7a6.69,6.69,0,0,0-2.09-.78c-16.76-4.44-33.4-8.94-49.49-13.29l-10.11-2.73C401.63,610.05,383.12,629.63,376.73,642.52Z" transform="translate(-189.09 -204.87)"/><ellipse cx="522.56" cy="502.11" rx="70.89" ry="42" transform="translate(-188.81 799.65) rotate(-87.75)"/><path d="M520.74,576.48l-1.11,0c-12.5-.5-23.8-8.93-31.81-23.76-7.7-14.23-11.51-32.84-10.74-52.38,1.61-41,23.28-73.54,48.41-72.55s44.16,35.14,42.55,76.14C566.45,544.29,545.35,576.48,520.74,576.48Zm3.59-141.7c-20.84,0-38.79,29.21-40.23,65.82-.72,18.3,2.79,35.62,9.9,48.76,6.78,12.56,16,19.69,25.91,20.08h.88c20.83,0,38.79-29.21,40.23-65.82l3.51.14-3.51-.14c1.46-37.12-14.6-68-35.81-68.84Z" transform="translate(-189.09 -204.87)"/><ellipse cx="346.89" cy="481.18" rx="64.8" ry="37.6" transform="translate(-367 552.82) rotate(-82)"/><path d="M341,549.08a25.26,25.26,0,0,1-3.67-.26c-11.23-1.58-20.62-10.33-26.44-24.65-5.56-13.67-7.25-31-4.75-48.71,5.33-37.93,27.41-65.13,50.22-61.92,11.23,1.58,20.63,10.33,26.45,24.65,5.55,13.67,7.24,31,4.74,48.72l-3.47-.49,3.47.49C382.55,522.8,362.52,549.08,341,549.08Zm11.82-128.76c-17.5,0-35.32,24.75-39.73,56.12-2.32,16.53-.79,32.55,4.3,45.09,4.84,11.9,12.27,19.12,20.92,20.34,18.31,2.57,37.66-23,42.29-55.94h0c2.32-16.54.8-32.55-4.3-45.1-4.84-11.89-12.27-19.12-20.92-20.33A18.26,18.26,0,0,0,352.86,420.32Z" transform="translate(-189.09 -204.87)"/><path class="cls-2" d="M285,477.67a3.51,3.51,0,0,1-2.79-1.38c-11.61-15.14-.68-42.35,24.88-61.94,19-14.56,40.78-20.65,55.51-15.53a3.52,3.52,0,0,1-2.31,6.64c-12.37-4.3-32,1.51-48.92,14.46C289.7,436.55,278.9,460.41,287.8,472a3.52,3.52,0,0,1-2.78,5.65Z" transform="translate(-189.09 -204.87)"/><path class="cls-2" d="M620.35,544a3.51,3.51,0,0,1-3.32-4.66c7.28-21.22-2.67-54.88-24.75-83.75-29-37.92-69.29-56-89.81-40.33a3.51,3.51,0,0,1-4.26-5.58c23.59-18,68.29.64,99.65,41.65,23.82,31.13,33.95,66.57,25.82,90.29A3.53,3.53,0,0,1,620.35,544Z" transform="translate(-189.09 -204.87)"/><ellipse class="cls-8" cx="349.17" cy="466.9" rx="24.05" ry="13.68" transform="translate(-418.85 330.97) rotate(-60)"/><ellipse class="cls-8" cx="518" cy="477.47" rx="28.17" ry="13.68" transform="translate(-343.59 482.47) rotate(-60)"/><ellipse class="cls-8" cx="357.01" cy="511.02" rx="11.04" ry="7.52" transform="translate(-446.24 412.91) rotate(-64.92)"/><ellipse class="cls-8" cx="536.06" cy="533.67" rx="11.04" ry="7.52" transform="translate(-306.84 709.18) rotate(-75.06)"/></g></svg>