<?xml version="1.0" encoding="utf-8"?>
<!-- Generator: Adobe Illustrator 25.2.3, SVG Export Plug-In . SVG Version: 6.00 Build 0)  -->
<svg version="1.1" id="Laag_1" xmlns="http://www.w3.org/2000/svg" xmlns:xlink="http://www.w3.org/1999/xlink" x="0px" y="0px"
	 viewBox="0 0 30 30" style="enable-background:new 0 0 30 30;" xml:space="preserve">
<path d="M21.1,9.6H8.9l6.1,5.2L21.1,9.6z"/>
<path d="M15,16.1c-0.1,0-0.3,0-0.3-0.1L8,10.3v10.1H22V10.3l-6.6,5.7C15.3,16,15.1,16.1,15,16.1z"/>
<path d="M15,0C6.7,0,0,6.7,0,15s6.7,15,15,15s15-6.7,15-15C30,6.7,23.3,0,15,0z M23,20.9c0,0.3-0.2,0.5-0.5,0.5h-15
	c-0.3,0-0.5-0.2-0.5-0.5V9.1c0-0.3,0.2-0.5,0.5-0.5h15c0.3,0,0.5,0.2,0.5,0.5V20.9z"/>
</svg>
