<svg xmlns="http://www.w3.org/2000/svg" width="350" height="93.324" viewBox="0 0 350 93.324">
  <path id="Subtraction_1" data-name="Subtraction 1" d="M492.83,93.322H142.891l-.052-77.574c.021.008,3.079,1.235,8.327,3.049,4.828,1.669,12.541,4.187,21.864,6.707a309.936,309.936,0,0,0,30.725,6.707,218.284,218.284,0,0,0,34.909,3.048c.367,0,.719,0,1.077,0A234.906,234.906,0,0,0,271.4,32.963a192.543,192.543,0,0,0,23.242-4.749,138.454,138.454,0,0,0,14.318-4.693c3.165-1.251,4.817-2.088,4.886-2.123.024-.013,2.483-1.338,6.695-3.268,3.911-1.792,10.2-4.5,17.96-7.229a207.1,207.1,0,0,1,26.042-7.327A160.97,160.97,0,0,1,395.479.01C396.139,0,396.814,0,397.484,0a242.435,242.435,0,0,1,32.938,2.536c9.682,1.346,20.036,3.224,30.774,5.58,18.264,4.007,31.511,8.075,31.643,8.116l-.009,77.092Z" transform="translate(492.839 93.323) rotate(180)" fill="#373737"/>
</svg>
