<?xml version="1.0" encoding="utf-8"?>
<!-- Generator: Adobe Illustrator 25.2.3, SVG Export Plug-In . SVG Version: 6.00 Build 0)  -->
<svg version="1.1" id="Capa_1" xmlns="http://www.w3.org/2000/svg" xmlns:xlink="http://www.w3.org/1999/xlink" x="0px" y="0px"
	 viewBox="0 0 30 30" style="enable-background:new 0 0 30 30;" xml:space="preserve">
<style type="text/css">
	.st0{fill:#EF4470;}
	.st1{fill:#FFFFFF;}
</style>
<g>
	<g>
		<g>
			<g>
				<g>
					<g>
						<g>
							<g>
								<g>
									<g>
										<g>
											<g>
												<circle class="st0" cx="15" cy="15" r="15"/>
											</g>
										</g>
									</g>
								</g>
							</g>
						</g>
					</g>
				</g>
			</g>
		</g>
	</g>
	<path class="st0" d="M30,15.7L19.1,4.9c-1-1.1-2.5-1.8-4.1-1.8c-3.1,0-5.6,2.5-5.6,5.6V12h-2v9.6c0,1.2,0.5,2.3,1.3,3l5.4,5.4
		c0.3,0,0.6,0,0.9,0C23,30,29.6,23.7,30,15.7z"/>
	<g>
		<path class="st1" d="M20.6,12.7h-1.8v-4c0-2.1-1.7-3.9-3.9-3.9s-3.9,1.7-3.9,3.9v4H9.4v-4c0-3.1,2.5-5.6,5.6-5.6s5.6,2.5,5.6,5.6
			V12.7z"/>
	</g>
	<g>
		<path class="st1" d="M20.6,8.7v4h-1.8v-4c0-2.1-1.7-3.9-3.9-3.9V3.1C18.1,3.1,20.6,5.6,20.6,8.7z"/>
	</g>
	<g>
		<path class="st1" d="M18.6,25.6h-7.2c-2.2,0-4-1.8-4-4V12h15.2v9.6C22.6,23.8,20.8,25.6,18.6,25.6z"/>
	</g>
	<g>
		<path class="st1" d="M22.6,12v9.6c0,2.2-1.8,4-4,4H15V12H22.6z"/>
	</g>
	<g>
		<path class="st0" d="M17.1,17.3c0-1.2-1-2.1-2.1-2.1s-2.1,1-2.1,2.1c0,0.9,0.5,1.6,1.3,1.9l-0.6,3.1h2.9l-0.6-3.1
			C16.6,18.9,17.1,18.2,17.1,17.3z"/>
	</g>
	<g>
		<path class="st0" d="M15.9,19.3l0.6,3.1H15v-7.2c1.2,0,2.1,1,2.1,2.1C17.1,18.2,16.6,18.9,15.9,19.3z"/>
	</g>
</g>
</svg>
